<?xml version="1.0" encoding="UTF-8"?>
<svg version="1.1" xmlns="http://www.w3.org/2000/svg" width="200" height="200">
<path d="M0 0 C66 0 132 0 200 0 C200 66 200 132 200 200 C134 200 68 200 0 200 C0 134 0 68 0 0 Z " fill="#0B0708" transform="translate(0,0)"/>
<path d="M0 0 C0.66 0 1.32 0 2 0 C2 0.66 2 1.32 2 2 C3.65 2.33 5.3 2.66 7 3 C7 3.66 7 4.32 7 5 C7.99 5 8.98 5 10 5 C10 5.66 10 6.32 10 7 C10.61875 7.185625 11.2375 7.37125 11.875 7.5625 C14.51005748 9.34503889 14.8361837 10.95817716 15.61621094 13.96020508 C16.28140852 17.49565405 16.25035848 20.97607449 16.1875 24.5625 C16.17960449 25.34391357 16.17170898 26.12532715 16.16357422 26.93041992 C15.87815764 46.67039315 15.87815764 46.67039315 13 53 C12.34 53 11.68 53 11 53 C10.67 54.32 10.34 55.64 10 57 C8.02 56.505 8.02 56.505 6 56 C6 46.1 6 36.2 6 26 C3.69 26.33 1.38 26.66 -1 27 C-1 27.66 -1 28.32 -1 29 C-5.26616316 30.13764351 -8.56486311 31 -13 31 C-12.68160156 31.55558594 -12.36320312 32.11117187 -12.03515625 32.68359375 C-10.88831751 35.24991592 -10.63559738 37.26806248 -10.4375 40.0625 C-10.22134251 42.996066 -9.93801009 45.18596973 -9 48 C-9.495 48.99 -9.495 48.99 -10 50 C-15.09032841 50.02468084 -20.18062215 50.04285082 -25.27099609 50.05493164 C-27.00342414 50.05996682 -28.73584792 50.06679532 -30.46826172 50.07543945 C-32.95541433 50.08754065 -35.44251087 50.09323638 -37.9296875 50.09765625 C-38.70682098 50.10281754 -39.48395447 50.10797882 -40.28463745 50.11329651 C-45.77225659 50.11387171 -45.77225659 50.11387171 -48 49 C-50.08439749 49.89075843 -50.08439749 49.89075843 -52.3125 51.25 C-53.07175781 51.68828125 -53.83101562 52.1265625 -54.61328125 52.578125 C-57.02396032 53.95316329 -57.02396032 53.95316329 -59.1796875 55.66015625 C-63.36102886 57.64658296 -67.25005907 57.32018844 -71.8125 57.1875 C-73.13797852 57.16719727 -73.13797852 57.16719727 -74.49023438 57.14648438 C-76.66042023 57.11129217 -78.83029033 57.05748985 -81 57 C-85.07480455 48.62704884 -87.22052673 40.11356402 -89 31 C-89.99 30.67 -90.98 30.34 -92 30 C-92 26.7 -92 23.4 -92 20 C-79.87778462 19.13507794 -68.11454735 18.99174702 -56 20 C-56 20.66 -56 21.32 -56 22 C-55.34644531 21.49855469 -54.69289062 20.99710938 -54.01953125 20.48046875 C-50.11447043 18.56582703 -46.88474833 18.88864919 -42.6875 19.3125 C-41.57665039 19.4043457 -41.57665039 19.4043457 -40.44335938 19.49804688 C-38.62758328 19.65033777 -36.81354599 19.82312066 -35 20 C-35 20.66 -35 21.32 -35 22 C-34.37955811 22 -33.75911621 22 -33.11987305 22 C-25.74658203 22 -18.37329102 22 -11 22 C-9.26953591 21.84739214 -7.54037955 21.67951995 -5.8125 21.5 C-4.91144531 21.4071875 -4.01039063 21.314375 -3.08203125 21.21875 C-2.39496094 21.1465625 -1.70789063 21.074375 -1 21 C-1.06028813 18.08419293 -1.06028813 18.08419293 -2 15 C-4.44257218 13.21712156 -4.44257218 13.21712156 -7.5625 12.1875 C-8.57441406 11.78917969 -9.58632812 11.39085938 -10.62890625 10.98046875 C-18.1027515 8.8067316 -25.65039565 8.82893171 -33.375 8.796875 C-34.45773193 8.79117493 -35.54046387 8.78547485 -36.65600586 8.77960205 C-38.94204748 8.77018991 -41.22810243 8.7636332 -43.51416016 8.75976562 C-46.96151297 8.75010782 -50.4082567 8.71906697 -53.85546875 8.6875 C-73.14542198 8.44772423 -73.14542198 8.44772423 -91.73046875 13.10058594 C-94 14 -94 14 -97 14 C-97 14.66 -97 15.32 -97 16 C-97.99 16 -98.98 16 -100 16 C-103.07759812 22.44148445 -102.39277766 29.71824295 -100.2109375 36.42578125 C-99.56646667 37.85881192 -98.88593308 39.27612393 -98.171875 40.67578125 C-96.29236588 44.40347434 -94.86487224 48.31809658 -93.34375 52.203125 C-90.97644557 57.13042144 -88.49979928 60.22750396 -83.375 62.25 C-82.21097656 62.72179687 -82.21097656 62.72179687 -81.0234375 63.203125 C-80.02183594 63.59757812 -80.02183594 63.59757812 -79 64 C-78.34 64.33 -77.68 64.66 -77 65 C-68.14106283 66.97512579 -59.29493039 67.39840467 -50.25 67.625 C-48.96867187 67.66367188 -47.68734375 67.70234375 -46.3671875 67.7421875 C-43.2449253 67.83538936 -40.12265307 67.9211969 -37 68 C-37 68.66 -37 69.32 -37 70 C-41.4787443 70.1986449 -45.95799493 70.38189278 -50.4375 70.5625 C-51.69755859 70.61857422 -52.95761719 70.67464844 -54.25585938 70.73242188 C-72.33903938 71.44064041 -72.33903938 71.44064041 -79 67 C-80.93609974 66.29009676 -82.87221706 65.58024119 -84.80859375 64.87109375 C-94.77167778 60.91072345 -94.77167778 60.91072345 -97.6875 56.375 C-98.3371875 54.704375 -98.3371875 54.704375 -99 53 C-99.98894214 51.2437274 -100.99022596 49.49437851 -102 47.75 C-104.44050073 43.3220618 -106.10281761 39.08070329 -107.359375 34.19140625 C-107.92957438 31.96782485 -107.92957438 31.96782485 -109.078125 29.96484375 C-110 28 -110 28 -110 24 C-109.34 24 -108.68 24 -108 24 C-108.2475 23.0925 -108.495 22.185 -108.75 21.25 C-108.87375 19.64125 -108.87375 19.64125 -109 18 C-107.0625 15.75 -107.0625 15.75 -105 14 C-105 13.34 -105 12.68 -105 12 C-103.35 11.34 -101.7 10.68 -100 10 C-100 10.66 -100 11.32 -100 12 C-98.35 12 -96.7 12 -95 12 C-94.80277344 11.38382813 -94.60554688 10.76765625 -94.40234375 10.1328125 C-92.3398445 6.9959752 -90.1435296 6.8084995 -86.5625 5.875 C-85.40878906 5.56304687 -84.25507812 5.25109375 -83.06640625 4.9296875 C-73.59826919 2.68928223 -64.41480293 1.60878746 -54.6875 1.3125 C-53.49850098 1.2719751 -52.30950195 1.2314502 -51.08447266 1.18969727 C-43.90266835 0.98066653 -36.90392819 1.04971566 -29.75 1.73828125 C-22.79182234 2.41169433 -22.79182234 2.41169433 -15.9453125 1.4296875 C-14 1 -14 1 -11 2 C-11 2.66 -11 3.32 -11 4 C-8.03 4 -5.06 4 -2 4 C-1.34 2.68 -0.68 1.36 0 0 Z " fill="#3C271E" transform="translate(145,78)"/>
<path d="M0 0 C3.4578598 0.0107387 6.91520266 0.00004979 10.37304688 -0.01269531 C12.60221467 -0.0113739 14.83138215 -0.00881188 17.06054688 -0.00488281 C18.07855377 -0.00893127 19.09656067 -0.01297974 20.14541626 -0.01715088 C28.76275359 0.03838246 37.66670243 0.65076412 45.45898438 4.63574219 C46.27625 5.03535156 47.09351563 5.43496094 47.93554688 5.84667969 C49.83398438 7.26074219 49.83398438 7.26074219 50.66992188 9.29980469 C50.83398438 11.26074219 50.83398438 11.26074219 49.83398438 13.26074219 C47.65429688 13.89355469 47.65429688 13.89355469 44.95898438 14.38574219 C44.0746875 14.55332031 43.19039063 14.72089844 42.27929688 14.89355469 C38.80880688 15.41468258 35.43950723 15.21131299 31.94726562 15.04199219 C31.00947266 14.996875 30.07167969 14.95175781 29.10546875 14.90527344 C28.12900391 14.85757813 27.15253906 14.80988281 26.14648438 14.76074219 C25.15841797 14.71304688 24.17035156 14.66535156 23.15234375 14.61621094 C20.7128589 14.49836143 18.27340822 14.37984664 15.83398438 14.26074219 C15.83398438 13.60074219 15.83398438 12.94074219 15.83398438 12.26074219 C13.20871249 12.20692112 10.58453725 12.16715906 7.95898438 12.13574219 C6.83943359 12.11060547 6.83943359 12.11060547 5.69726562 12.08496094 C3.74203976 12.06734629 1.78656416 12.1575403 -0.16601562 12.26074219 C-0.82601562 12.92074219 -1.48601562 13.58074219 -2.16601562 14.26074219 C-3.15601563 14.26074219 -4.14601562 14.26074219 -5.16601562 14.26074219 C-5.16601562 13.60074219 -5.16601562 12.94074219 -5.16601562 12.26074219 C-17.04601562 12.26074219 -28.92601563 12.26074219 -41.16601562 12.26074219 C-40.83601563 15.56074219 -40.50601563 18.86074219 -40.16601562 22.26074219 C-39.50601563 22.59074219 -38.84601562 22.92074219 -38.16601562 23.26074219 C-35.42429078 29.35465405 -33.70405104 35.7790215 -32.16601562 42.26074219 C-31.51172059 44.26482364 -30.8470168 46.26557757 -30.16601562 48.26074219 C-15.26769208 49.35997116 -15.26769208 49.35997116 -2.16601562 43.26074219 C2.21444094 40.2046097 3.65156918 40.35838503 8.83398438 41.26074219 C11.1924806 41.32841783 13.55275036 41.34581379 15.91210938 41.32324219 C16.89108185 41.31756226 16.89108185 41.31756226 17.88983154 41.31176758 C19.95461953 41.29964687 22.01926125 41.28100349 24.08398438 41.26074219 C26.81835531 41.23418262 29.55265842 41.21420086 32.28710938 41.19824219 C33.4952832 41.18664062 34.70345703 41.17503906 35.94824219 41.16308594 C38.83398438 41.26074219 38.83398438 41.26074219 40.83398438 42.26074219 C41.16398437 40.94074219 41.49398437 39.62074219 41.83398438 38.26074219 C41.17398438 37.93074219 40.51398438 37.60074219 39.83398438 37.26074219 C39.45507812 35.11621094 39.45507812 35.11621094 39.27148438 32.44824219 C39.03496862 29.18046322 38.63767753 26.47551479 37.83398438 23.26074219 C41.79398437 22.60074219 45.75398438 21.94074219 49.83398438 21.26074219 C49.83398438 20.60074219 49.83398438 19.94074219 49.83398438 19.26074219 C52.14398438 18.60074219 54.45398438 17.94074219 56.83398438 17.26074219 C57.83398438 18.26074219 57.83398438 18.26074219 57.94750977 21.12817383 C57.93965454 23.00557251 57.93965454 23.00557251 57.93164062 24.92089844 C57.93022568 25.58536484 57.92881073 26.24983124 57.92735291 26.93443298 C57.92173956 29.06408118 57.90918491 31.19362558 57.89648438 33.32324219 C57.89147109 34.76399588 57.88690789 36.20475122 57.8828125 37.64550781 C57.87176582 41.18395321 57.85449229 44.72233758 57.83398438 48.26074219 C58.49398437 48.59074219 59.15398437 48.92074219 59.83398438 49.26074219 C59.20898438 51.13574219 59.20898438 51.13574219 57.83398438 53.26074219 C54.70898438 54.51074219 54.70898438 54.51074219 51.83398438 55.26074219 C51.83398438 55.92074219 51.83398438 56.58074219 51.83398438 57.26074219 C49.87507557 58.65374401 47.87007258 59.98319665 45.83398438 61.26074219 C44.84398437 61.92074219 43.85398437 62.58074219 42.83398438 63.26074219 C40.83978956 63.03916499 38.84281573 62.81341845 36.86914062 62.45214844 C34.87946475 62.13739182 34.87946475 62.13739182 33.2097168 62.74267578 C29.74933796 63.49726667 26.31050283 63.38281021 22.78710938 63.35839844 C22.01590759 63.35698349 21.24470581 63.35556854 20.45013428 63.35411072 C17.99471099 63.34852752 15.53937995 63.33597814 13.08398438 63.32324219 C11.41601694 63.31822501 9.74804808 63.31366249 8.08007812 63.30957031 C3.9980115 63.2985636 -0.08398644 63.28131055 -4.16601562 63.26074219 C-4.16601562 62.93074219 -4.16601562 62.60074219 -4.16601562 62.26074219 C1.77398437 62.26074219 7.71398437 62.26074219 13.83398438 62.26074219 C13.83398438 61.60074219 13.83398438 60.94074219 13.83398438 60.26074219 C12.65594238 60.27645264 12.65594238 60.27645264 11.45410156 60.29248047 C7.83076288 60.33453803 4.20747584 60.36022464 0.58398438 60.38574219 C-0.6509375 60.4025 -1.88585937 60.41925781 -3.15820312 60.43652344 C-16.52961793 60.5068993 -29.85066008 59.6503607 -40.16601562 50.26074219 C-46.57041993 39.98355693 -53.33373176 25.63853318 -52.16601562 13.26074219 C-50.85351562 10.32324219 -50.85351562 10.32324219 -49.16601562 8.26074219 C-48.17601562 8.26074219 -47.18601562 8.26074219 -46.16601562 8.26074219 C-46.16601562 7.60074219 -46.16601562 6.94074219 -46.16601562 6.26074219 C-44.61048981 5.61858123 -43.04590139 4.99838655 -41.47851562 4.38574219 C-40.60839844 4.03769531 -39.73828125 3.68964844 -38.84179688 3.33105469 C-26.08309449 -0.38401912 -13.17611639 -0.04874488 0 0 Z " fill="#081915" transform="translate(94.166015625,85.7392578125)"/>
<path d="M0 0 C3.4578598 0.0107387 6.91520266 0.00004979 10.37304688 -0.01269531 C12.60221467 -0.0113739 14.83138215 -0.00881188 17.06054688 -0.00488281 C18.07855377 -0.00893127 19.09656067 -0.01297974 20.14541626 -0.01715088 C28.76275359 0.03838246 37.66670243 0.65076412 45.45898438 4.63574219 C46.27625 5.03535156 47.09351563 5.43496094 47.93554688 5.84667969 C49.83398438 7.26074219 49.83398438 7.26074219 50.66992188 9.29980469 C50.83398438 11.26074219 50.83398438 11.26074219 49.83398438 13.26074219 C47.65429688 13.89355469 47.65429688 13.89355469 44.95898438 14.38574219 C44.0746875 14.55332031 43.19039063 14.72089844 42.27929688 14.89355469 C38.80880688 15.41468258 35.43950723 15.21131299 31.94726562 15.04199219 C31.00947266 14.996875 30.07167969 14.95175781 29.10546875 14.90527344 C28.12900391 14.85757813 27.15253906 14.80988281 26.14648438 14.76074219 C25.15841797 14.71304688 24.17035156 14.66535156 23.15234375 14.61621094 C20.7128589 14.49836143 18.27340822 14.37984664 15.83398438 14.26074219 C15.83398438 13.60074219 15.83398438 12.94074219 15.83398438 12.26074219 C13.20871249 12.20692112 10.58453725 12.16715906 7.95898438 12.13574219 C6.83943359 12.11060547 6.83943359 12.11060547 5.69726562 12.08496094 C3.74203976 12.06734629 1.78656416 12.1575403 -0.16601562 12.26074219 C-0.82601562 12.92074219 -1.48601562 13.58074219 -2.16601562 14.26074219 C-3.15601563 14.26074219 -4.14601562 14.26074219 -5.16601562 14.26074219 C-5.16601562 13.60074219 -5.16601562 12.94074219 -5.16601562 12.26074219 C-17.04601562 12.26074219 -28.92601563 12.26074219 -41.16601562 12.26074219 C-41.16601562 14.90074219 -41.16601562 17.54074219 -41.16601562 20.26074219 C-42.48601563 20.59074219 -43.80601563 20.92074219 -45.16601562 21.26074219 C-45.10567854 23.65914135 -45.01857044 26.05158069 -44.91601562 28.44824219 C-44.90183594 29.12177734 -44.88765625 29.7953125 -44.87304688 30.48925781 C-44.63556992 35.35753533 -43.48331336 37.75206189 -40.16601562 41.26074219 C-38.16601562 44.76074219 -38.16601562 44.76074219 -38.16601562 47.26074219 C-37.17601562 47.59074219 -36.18601562 47.92074219 -35.16601562 48.26074219 C-35.16601562 48.92074219 -35.16601562 49.58074219 -35.16601562 50.26074219 C-36.81601562 50.26074219 -38.46601562 50.26074219 -40.16601562 50.26074219 C-53.26011451 24.85819035 -53.26011451 24.85819035 -52.16601562 13.26074219 C-50.85351562 10.32324219 -50.85351562 10.32324219 -49.16601562 8.26074219 C-48.17601562 8.26074219 -47.18601562 8.26074219 -46.16601562 8.26074219 C-46.16601562 7.60074219 -46.16601562 6.94074219 -46.16601562 6.26074219 C-44.61048981 5.61858123 -43.04590139 4.99838655 -41.47851562 4.38574219 C-40.60839844 4.03769531 -39.73828125 3.68964844 -38.84179688 3.33105469 C-26.08309449 -0.38401912 -13.17611639 -0.04874488 0 0 Z " fill="#091412" transform="translate(94.166015625,85.7392578125)"/>
<path d="M0 0 C1.06734375 -0.01224609 2.1346875 -0.02449219 3.234375 -0.03710938 C4.25789063 -0.03904297 5.28140625 -0.04097656 6.3359375 -0.04296875 C7.74818604 -0.04913208 7.74818604 -0.04913208 9.18896484 -0.05541992 C11.625 0.1875 11.625 0.1875 14.625 2.1875 C14.92895006 4.78597505 15.0436308 7.09389107 15 9.6875 C15.01160156 10.37714844 15.02320313 11.06679687 15.03515625 11.77734375 C15.0234375 13.78125 15.0234375 13.78125 14.625 17.1875 C10.28112755 20.08341497 6.36206174 19.59391314 1.25 19.625 C0.30382812 19.65787109 -0.64234375 19.69074219 -1.6171875 19.72460938 C-6.26759067 19.76053243 -8.64072904 19.70741857 -12.51953125 16.9609375 C-15.35274821 12.72602372 -14.74711206 10.17380157 -14.375 5.1875 C-17.345 5.1875 -20.315 5.1875 -23.375 5.1875 C-22.88 7.1675 -22.88 7.1675 -22.375 9.1875 C-21.67289331 16.22206898 -21.67289331 16.22206898 -23.62353516 18.90429688 C-26.9116784 21.31334077 -30.81371013 20.69932069 -34.75 20.6875 C-36.02617188 20.73003906 -36.02617188 20.73003906 -37.328125 20.7734375 C-41.89303363 20.7876584 -43.75837096 20.68841203 -47.4140625 17.71875 C-48.06117187 16.8834375 -48.70828125 16.048125 -49.375 15.1875 C-49.705 14.8575 -50.035 14.5275 -50.375 14.1875 C-50.44679964 12.66821962 -50.45892007 11.14582518 -50.4375 9.625 C-50.42847656 8.79871094 -50.41945313 7.97242187 -50.41015625 7.12109375 C-50.39855469 6.48300781 -50.38695313 5.84492187 -50.375 5.1875 C-51.08527344 5.06632812 -51.79554687 4.94515625 -52.52734375 4.8203125 C-53.44644531 4.65273437 -54.36554687 4.48515625 -55.3125 4.3125 C-56.68728516 4.06886719 -56.68728516 4.06886719 -58.08984375 3.8203125 C-58.84394531 3.61148438 -59.59804688 3.40265625 -60.375 3.1875 C-60.705 2.5275 -61.035 1.8675 -61.375 1.1875 C-60.45751732 1.19083092 -60.45751732 1.19083092 -59.52149963 1.19422913 C-53.17929669 1.21628122 -46.83710456 1.23140627 -40.49487305 1.24243164 C-38.12507688 1.24747341 -35.75528385 1.25430665 -33.38549805 1.26293945 C-29.98745961 1.2750119 -26.58946215 1.28072971 -23.19140625 1.28515625 C-22.12475235 1.29031754 -21.05809845 1.29547882 -19.9591217 1.30079651 C-18.97818039 1.30087204 -17.99723907 1.30094757 -16.98657227 1.30102539 C-16.11831314 1.303246 -15.25005402 1.30546661 -14.35548401 1.30775452 C-9.8175343 1.03221129 -5.09380819 0.00305384 0 0 Z " fill="#FAFDFB" transform="translate(116.375,105.8125)"/>
<path d="M0 0 C1.9375 0.8125 1.9375 0.8125 4 2 C4.33 2.99 4.66 3.98 5 5 C5.66 4.67 6.32 4.34 7 4 C7 4.66 7 5.32 7 6 C7.66 6 8.32 6 9 6 C9.72054048 11.66138945 10.38273804 17.32644329 11 23 C11.33 23 11.66 23 12 23 C12 24.98 12 26.96 12 29 C15.3 29.33 18.6 29.66 22 30 C22 30.99 22 31.98 22 33 C16.06 33.495 16.06 33.495 10 34 C10 37.3 10 40.6 10 44 C9.34 44 8.68 44 8 44 C7.67 45.98 7.34 47.96 7 50 C5.515 50.495 5.515 50.495 4 51 C2.55691551 52.6442873 2.55691551 52.6442873 1.1875 54.5625 C-1.56577196 57.94371118 -1.56577196 57.94371118 -5.375 58.4375 C-6.24125 58.293125 -7.1075 58.14875 -8 58 C-9.84651134 54.88401212 -10.38079379 52.61754103 -10 49 C-9.34 48.34 -8.68 47.68 -8 47 C-7.19759863 44.71188018 -6.47894372 42.39385005 -5.8125 40.0625 C-5.44769531 38.81597656 -5.08289063 37.56945312 -4.70703125 36.28515625 C-3.71200077 33.01607423 -3.71200077 33.01607423 -5 30 C-4.34 30 -3.68 30 -3 30 C-3.05124023 29.19780029 -3.10248047 28.39560059 -3.15527344 27.5690918 C-3.37490416 23.94282044 -3.56281506 20.31558465 -3.75 16.6875 C-3.83121094 15.42486328 -3.91242188 14.16222656 -3.99609375 12.86132812 C-4.05410156 11.65283203 -4.11210937 10.44433594 -4.171875 9.19921875 C-4.2347168 8.08377686 -4.29755859 6.96833496 -4.36230469 5.8190918 C-4 3 -4 3 -1.98925781 1.11254883 C-1.33280273 0.74540771 -0.67634766 0.3782666 0 0 Z " fill="#14142A" transform="translate(178,46)"/>
<path d="M0 0 C0 0.66 0 1.32 0 2 C0.65355469 1.49855469 1.30710938 0.99710937 1.98046875 0.48046875 C5.88552957 -1.43417297 9.11525167 -1.11135081 13.3125 -0.6875 C14.42334961 -0.5956543 14.42334961 -0.5956543 15.55664062 -0.50195312 C17.37241672 -0.34966223 19.18645401 -0.17687934 21 0 C21 0.66 21 1.32 21 2 C21.62044189 1.99476318 22.24088379 1.98952637 22.88012695 1.98413086 C25.69090767 1.96334534 28.50167221 1.95033483 31.3125 1.9375 C32.28896484 1.92912109 33.26542969 1.92074219 34.27148438 1.91210938 C35.20927734 1.90888672 36.14707031 1.90566406 37.11328125 1.90234375 C37.97735596 1.89710693 38.84143066 1.89187012 39.73168945 1.88647461 C42 2 42 2 45 3 C45 3.66 45 4.32 45 5 C44.01 5.66 43.02 6.32 42 7 C41.67 7.66 41.34 8.32 41 9 C40.2479126 8.99476318 39.4958252 8.98952637 38.72094727 8.98413086 C35.33480658 8.96342773 31.94867916 8.95036123 28.5625 8.9375 C27.37849609 8.92912109 26.19449219 8.92074219 24.97460938 8.91210938 C23.84990234 8.90888672 22.72519531 8.90566406 21.56640625 8.90234375 C20.52427979 8.89710693 19.48215332 8.89187012 18.40844727 8.88647461 C16.04871253 8.72694444 16.04871253 8.72694444 15 10 C13.51170636 10.09310252 12.01902972 10.11746073 10.52783203 10.11352539 C9.57659454 10.11344986 8.62535706 10.11337433 7.64529419 10.11329651 C6.09224075 10.10555458 6.09224075 10.10555458 4.5078125 10.09765625 C3.45093231 10.0962413 2.39405212 10.09482635 1.30514526 10.09336853 C-2.08826473 10.08775098 -5.48160983 10.07520304 -8.875 10.0625 C-11.15755113 10.0574866 -13.44010329 10.05292342 -15.72265625 10.04882812 C-20.75635631 10.03896922 -25.79002272 10.02473854 -30.82369995 10.00672913 C-32.54912651 10.0013941 -34.27456519 10 -36 10 C-36 6.7 -36 3.4 -36 0 C-23.9762532 -1.50008357 -12.05731063 -0.6814397 0 0 Z " fill="#2C4E41" transform="translate(89,98)"/>
<path d="M0 0 C4.95 0.99 4.95 0.99 10 2 C10.09765625 4.18098958 10.1953125 6.36197917 10.29296875 8.54296875 C11.36813554 12.27932186 12.862082 13.71277077 16 16 C19.25390827 16.64224295 22.38369665 16.5644736 25.6875 16.4375 C26.55439453 16.43169922 27.42128906 16.42589844 28.31445312 16.41992188 C33.17249432 16.57024616 33.17249432 16.57024616 37 14 C37.24339551 11.10116917 37.24339551 11.10116917 37.125 7.875 C37.10695312 6.77929688 37.08890625 5.68359375 37.0703125 4.5546875 C37.04710937 3.71164063 37.02390625 2.86859375 37 2 C39.97 2 42.94 2 46 2 C46.13020833 4.21354167 46.26041667 6.42708333 46.390625 8.640625 C47.2609725 12.01043198 48.06305896 13.06398954 51 15 C54.53260059 15.51496307 58.00106899 15.42071364 61.5625 15.3125 C63.00012695 15.29799805 63.00012695 15.29799805 64.46679688 15.28320312 C69.82007541 15.21353467 69.82007541 15.21353467 75 14 C75 10.37 75 6.74 75 3 C75.66 2.67 76.32 2.34 77 2 C77.66666667 5.33333333 78.33333333 8.66666667 79 12 C79.20753906 12.89332031 79.41507812 13.78664063 79.62890625 14.70703125 C80 17 80 17 79 19 C73.90967159 19.02468084 68.81937785 19.04285082 63.72900391 19.05493164 C61.99657586 19.05996682 60.26415208 19.06679532 58.53173828 19.07543945 C56.04458567 19.08754065 53.55748913 19.09323638 51.0703125 19.09765625 C49.90461227 19.10539818 49.90461227 19.10539818 48.71536255 19.11329651 C43.22774341 19.11387171 43.22774341 19.11387171 41 18 C38.91560251 18.89075843 38.91560251 18.89075843 36.6875 20.25 C35.92824219 20.68828125 35.16898438 21.1265625 34.38671875 21.578125 C31.97603968 22.95316329 31.97603968 22.95316329 29.8203125 24.66015625 C25.63897114 26.64658296 21.74994093 26.32018844 17.1875 26.1875 C15.86202148 26.16719727 15.86202148 26.16719727 14.50976562 26.14648438 C12.33957977 26.11129217 10.16970967 26.05748985 8 26 C3.91415042 17.6043534 1.82623681 9.13118403 0 0 Z " fill="#09433B" transform="translate(56,109)"/>
<path d="M0 0 C3.4578598 0.0107387 6.91520266 0.00004979 10.37304688 -0.01269531 C12.60221467 -0.0113739 14.83138215 -0.00881188 17.06054688 -0.00488281 C18.07855377 -0.00893127 19.09656067 -0.01297974 20.14541626 -0.01715088 C37.66901996 0.09577777 37.66901996 0.09577777 41.83398438 4.26074219 C40.18398437 4.59074219 38.53398437 4.92074219 36.83398438 5.26074219 C36.83398438 4.60074219 36.83398438 3.94074219 36.83398438 3.26074219 C36.27936523 3.26074219 35.72474609 3.26074219 35.15332031 3.26074219 C13.83398438 3.26074219 13.83398438 3.26074219 11.76367188 3.22558594 C7.66913419 3.06228484 7.66913419 3.06228484 3.83398438 4.26074219 C2.62742187 4.04417969 2.62742187 4.04417969 1.39648438 3.82324219 C-6.53732022 2.5705362 -16.98231922 1.81236046 -23.98632812 6.47167969 C-25.42925858 7.67760707 -26.80347863 8.96467041 -28.16601562 10.26074219 C-30.93053595 11.64300235 -33.21215193 11.35599606 -36.29101562 11.32324219 C-37.38671875 11.31421875 -38.48242188 11.30519531 -39.61132812 11.29589844 C-40.454375 11.28429687 -41.29742187 11.27269531 -42.16601562 11.26074219 C-41.83601563 14.23074219 -41.50601563 17.20074219 -41.16601562 20.26074219 C-42.48601563 20.59074219 -43.80601563 20.92074219 -45.16601562 21.26074219 C-45.10567854 23.65914135 -45.01857044 26.05158069 -44.91601562 28.44824219 C-44.90183594 29.12177734 -44.88765625 29.7953125 -44.87304688 30.48925781 C-44.63556992 35.35753533 -43.48331336 37.75206189 -40.16601562 41.26074219 C-38.16601562 44.76074219 -38.16601562 44.76074219 -38.16601562 47.26074219 C-37.17601562 47.59074219 -36.18601562 47.92074219 -35.16601562 48.26074219 C-35.16601562 48.92074219 -35.16601562 49.58074219 -35.16601562 50.26074219 C-36.81601562 50.26074219 -38.46601562 50.26074219 -40.16601562 50.26074219 C-53.26011451 24.85819035 -53.26011451 24.85819035 -52.16601562 13.26074219 C-50.85351562 10.32324219 -50.85351562 10.32324219 -49.16601562 8.26074219 C-48.17601562 8.26074219 -47.18601562 8.26074219 -46.16601562 8.26074219 C-46.16601562 7.60074219 -46.16601562 6.94074219 -46.16601562 6.26074219 C-44.61048981 5.61858123 -43.04590139 4.99838655 -41.47851562 4.38574219 C-40.60839844 4.03769531 -39.73828125 3.68964844 -38.84179688 3.33105469 C-26.08309449 -0.38401912 -13.17611639 -0.04874488 0 0 Z " fill="#0A0E0B" transform="translate(94.166015625,85.7392578125)"/>
<path d="M0 0 C0.99 0 1.98 0 3 0 C2.35425037 3.9821227 1.63575716 6.74430487 -1.71484375 9.31640625 C-6.97382132 12.26476099 -12.05168629 13.5344311 -18.00976562 14.11987305 C-19.23044865 14.24259724 -19.23044865 14.24259724 -20.47579193 14.36780071 C-32.55559827 15.4542063 -44.69568644 15.41462128 -56.81501961 15.50351167 C-59.6482456 15.52521521 -62.48141115 15.55233028 -65.31459188 15.57922095 C-72.00003962 15.64240525 -78.68551554 15.69572783 -85.37109375 15.74291992 C-92.23279061 15.79155809 -99.09414306 15.8585238 -105.95559168 15.93408471 C-111.89148016 15.99872626 -117.82739604 16.05132201 -123.76347876 16.0945732 C-127.28984899 16.12042327 -130.81602525 16.15078132 -134.34223938 16.19312477 C-138.26781921 16.23971388 -142.19332772 16.26118111 -146.11914062 16.28051758 C-147.26533875 16.29751205 -148.41153687 16.31450653 -149.59246826 16.33201599 C-157.82858292 16.34267639 -165.99542422 15.66971719 -173 11 C-173 10.34 -173 9.68 -173 9 C-172.21738202 9.14137264 -171.43476404 9.28274529 -170.62843037 9.42840195 C-162.54213696 10.79396023 -154.75984521 11.28708802 -146.5690918 11.25878906 C-145.29566925 11.2622937 -144.0222467 11.26579834 -142.7102356 11.26940918 C-139.25752208 11.27842552 -135.80492985 11.27503328 -132.35221457 11.26865101 C-128.70956365 11.26353131 -125.06692203 11.26829914 -121.42427063 11.27142334 C-115.30764941 11.27504718 -109.19107672 11.27030714 -103.07446289 11.26074219 C-96.04500956 11.24987535 -89.01567246 11.25337674 -81.98622197 11.264395 C-75.91016621 11.27353082 -69.83414502 11.27472223 -63.7580846 11.26951766 C-60.14716718 11.26643039 -56.53630398 11.26589738 -52.92539024 11.27259064 C-26.14452712 13.18285304 -26.14452712 13.18285304 -2.1875 4.3125 C-1.795625 3.879375 -1.40375 3.44625 -1 3 C-0.34 3 0.32 3 1 3 C0.67 2.01 0.34 1.02 0 0 Z " fill="#51371F" transform="translate(197,176)"/>
<path d="M0 0 C2.29077148 -0.37231445 2.29077148 -0.37231445 5.12109375 -0.36328125 C6.13880859 -0.36263672 7.15652344 -0.36199219 8.20507812 -0.36132812 C9.27177734 -0.34521484 10.33847656 -0.32910156 11.4375 -0.3125 C12.50033203 -0.31572266 13.56316406 -0.31894531 14.65820312 -0.32226562 C22.59948017 -0.26701322 22.59948017 -0.26701322 26 2 C26.30395006 4.59847505 26.4186308 6.90639107 26.375 9.5 C26.38660156 10.18964844 26.39820313 10.87929687 26.41015625 11.58984375 C26.3984375 13.59375 26.3984375 13.59375 26 17 C21.63961205 19.9069253 17.69051224 19.32974281 12.5625 19.3125 C11.13067383 19.33666992 11.13067383 19.33666992 9.66992188 19.36132812 C8.74888672 19.36197266 7.82785156 19.36261719 6.87890625 19.36328125 C6.0391626 19.36626221 5.19941895 19.36924316 4.33422852 19.37231445 C1.45645806 18.91330389 0.08406082 18.0149955 -2 16 C-2.4609375 12.96875 -2.4609375 12.96875 -2.375 9.5 C-2.36210938 8.3553125 -2.34921875 7.210625 -2.3359375 6.03125 C-2 3 -2 3 0 0 Z " fill="#E8F8F6" transform="translate(105,106)"/>
<path d="M0 0 C0 9.9 0 19.8 0 30 C0.66 30.33 1.32 30.66 2 31 C1.375 32.875 1.375 32.875 0 35 C-3.125 36.25 -3.125 36.25 -6 37 C-6 37.66 -6 38.32 -6 39 C-7.95890881 40.39300182 -9.9639118 41.72245446 -12 43 C-12.99 43.66 -13.98 44.32 -15 45 C-16.99419482 44.7784228 -18.99116865 44.55267626 -20.96484375 44.19140625 C-22.95451962 43.87664963 -22.95451962 43.87664963 -24.62426758 44.48193359 C-28.08464642 45.23652448 -31.52348155 45.12206803 -35.046875 45.09765625 C-35.81807678 45.0962413 -36.58927856 45.09482635 -37.3838501 45.09336853 C-39.83927338 45.08778534 -42.29460442 45.07523595 -44.75 45.0625 C-46.41796743 45.05748283 -48.08593629 45.0529203 -49.75390625 45.04882812 C-53.83597287 45.03782141 -57.91797081 45.02056836 -62 45 C-62 44.67 -62 44.34 -62 44 C-56.06 44 -50.12 44 -44 44 C-44 43.34 -44 42.68 -44 42 C-44.83249268 42.01047363 -45.66498535 42.02094727 -46.52270508 42.03173828 C-49.61449156 42.06584442 -52.70618208 42.09091076 -55.7980957 42.10986328 C-57.79319618 42.12485495 -59.78820946 42.15026731 -61.78320312 42.17578125 C-63.03681641 42.18222656 -64.29042969 42.18867188 -65.58203125 42.1953125 C-66.73936768 42.20578613 -67.8967041 42.21625977 -69.08911133 42.22705078 C-72 42 -72 42 -75 40 C-73.0085944 39.61866701 -71.00720923 39.28674418 -69 39 C-68.67 39.33 -68.34 39.66 -68 40 C-65.46220432 40.10123677 -62.95229039 40.13968338 -60.4140625 40.1328125 C-59.25673111 40.13424759 -59.25673111 40.13424759 -58.07601929 40.13571167 C-56.43332844 40.13639424 -54.79063493 40.13453466 -53.14794922 40.13037109 C-50.67018286 40.12509619 -48.19260388 40.13027528 -45.71484375 40.13671875 C-30.77697401 41.05128177 -30.77697401 41.05128177 -17 37 C-16.67 36.01 -16.34 35.02 -16 34 C-13.69 34.66 -11.38 35.32 -9 36 C-9 35.01 -9 34.02 -9 33 C-8.34 33 -7.68 33 -7 33 C-6.67 30.03 -6.34 27.06 -6 24 C-5.01 23.67 -4.02 23.34 -3 23 C-3 17.39 -3 11.78 -3 6 C-5.31 5.34 -7.62 4.68 -10 4 C-9.34 3.67 -8.68 3.34 -8 3 C-8 2.34 -8 1.68 -8 1 C-3.375 -1.125 -3.375 -1.125 0 0 Z " fill="#211A18" transform="translate(152,104)"/>
<path d="M0 0 C0.70382813 0.15984375 1.40765625 0.3196875 2.1328125 0.484375 C2.70773438 0.73703125 3.28265625 0.9896875 3.875 1.25 C5.1407465 5.0472395 5.02374821 8.60760393 5 12.5625 C4.99661621 13.36196045 4.99323242 14.1614209 4.98974609 14.98510742 C4.82033552 34.77265644 4.82033552 34.77265644 1.875 41.25 C1.215 41.25 0.555 41.25 -0.125 41.25 C-0.455 42.57 -0.785 43.89 -1.125 45.25 C-2.445 44.92 -3.765 44.59 -5.125 44.25 C-5.125 34.35 -5.125 24.45 -5.125 14.25 C-7.435 14.58 -9.745 14.91 -12.125 15.25 C-12.125 15.91 -12.125 16.57 -12.125 17.25 C-13.775 17.25 -15.425 17.25 -17.125 17.25 C-17.125 16.59 -17.125 15.93 -17.125 15.25 C-15.50250059 14.41180842 -13.87691503 13.5795884 -12.25 12.75 C-11.34507812 12.2859375 -10.44015625 11.821875 -9.5078125 11.34375 C-7.125 10.25 -7.125 10.25 -5.125 10.25 C-5.640625 9.3425 -6.15625 8.435 -6.6875 7.5 C-8.125 4.25 -8.125 4.25 -8 1.9375 C-6.2178733 -1.49945863 -3.2137385 -0.7826817 0 0 Z " fill="#473175" transform="translate(156.125,89.75)"/>
<path d="M0 0 C2.30879451 0.07839853 4.61958492 0.10787794 6.9296875 0.09765625 C8.86328125 0.09282227 8.86328125 0.09282227 10.8359375 0.08789062 C12.18229236 0.07953733 13.52864652 0.07107241 14.875 0.0625 C16.24479004 0.0574783 17.61458185 0.05291657 18.984375 0.04882812 C22.3229619 0.03707254 25.66145815 0.02063964 29 0 C24.3359375 4.96875 24.3359375 4.96875 21.3125 5.25 C20.549375 5.1675 19.78625 5.085 19 5 C18.34 5.33 17.68 5.66 17 6 C14.451861 5.74649732 11.93999464 5.35587545 9.41015625 4.9609375 C6.94391571 4.74246141 6.94391571 4.74246141 5.37109375 6.4140625 C4.91863281 6.93742188 4.46617188 7.46078125 4 8 C1.05284366 8.98238545 -1.10884214 9.19439088 -4.19140625 9.31640625 C-5.73344727 9.37924805 -5.73344727 9.37924805 -7.30664062 9.44335938 C-8.91829102 9.50233398 -8.91829102 9.50233398 -10.5625 9.5625 C-11.60986328 9.60568359 -12.65722656 9.64886719 -13.73632812 9.69335938 C-32.53522254 10.42942547 -32.53522254 10.42942547 -40 9 C-41 8 -41 8 -41.0625 5.4375 C-41.041875 4.633125 -41.02125 3.82875 -41 3 C-40.34 4.32 -39.68 5.64 -39 7 C-24.10167646 8.09922897 -24.10167646 8.09922897 -11 2 C-6.62269661 -1.05393259 -5.17912989 -0.90778958 0 0 Z " fill="#05362F" transform="translate(103,127)"/>
<path d="M0 0 C1.65 0 3.3 0 5 0 C6.125 4.75 6.125 4.75 5 7 C5.66 7.33 6.32 7.66 7 8 C6.67 8.99 6.34 9.98 6 11 C5.38090109 20.63175029 6.16637317 29.69716492 8.02050781 39.14672852 C9.09371985 44.71884044 9.09371985 44.71884044 8 48 C7.525625 47.505 7.05125 47.01 6.5625 46.5 C5.24076302 44.88457803 5.24076302 44.88457803 4 45 C3.51891725 43.58398286 3.04021859 42.16715563 2.5625 40.75 C2.29566406 39.96109375 2.02882813 39.1721875 1.75390625 38.359375 C0.40968468 34.15258834 -0.08816708 31.18896648 0.4375 26.75 C0.53933594 25.85796875 0.64117188 24.9659375 0.74609375 24.046875 C0.87177734 23.03367187 0.87177734 23.03367187 1 22 C0.01 22 -0.98 22 -2 22 C-2.26442904 14.40501039 -1.60881575 7.42640842 0 0 Z " fill="#11302F" transform="translate(22,53)"/>
<path d="M0 0 C2.97 0 5.94 0 9 0 C9.13020833 2.21354167 9.26041667 4.42708333 9.390625 6.640625 C10.2609725 10.01043198 11.06305896 11.06398954 14 13 C17.53260059 13.51496307 21.00106899 13.42071364 24.5625 13.3125 C26.00012695 13.29799805 26.00012695 13.29799805 27.46679688 13.28320312 C32.82007541 13.21353467 32.82007541 13.21353467 38 12 C38 8.37 38 4.74 38 1 C38.66 0.67 39.32 0.34 40 0 C40.66666667 3.33333333 41.33333333 6.66666667 42 10 C42.20753906 10.89332031 42.41507813 11.78664063 42.62890625 12.70703125 C43 15 43 15 42 17 C37.51601216 17.09903473 33.03260708 17.17154483 28.54785156 17.21972656 C27.02299915 17.23981599 25.49822352 17.26709316 23.97363281 17.30175781 C21.77910402 17.35039796 19.58559531 17.37299396 17.390625 17.390625 C16.07094727 17.41157227 14.75126953 17.43251953 13.39160156 17.45410156 C10 17 10 17 7.53808594 15.10058594 C6 13 6 13 6 11 C3.75637427 10.7715451 3.75637427 10.7715451 1.875 13 C1.25625 13.66 0.6375 14.32 0 15 C-0.66 14.67 -1.32 14.34 -2 14 C-1.34 13.34 -0.68 12.68 0 12 C0.24339551 9.10116917 0.24339551 9.10116917 0.125 5.875 C0.10695313 4.77929688 0.08890625 3.68359375 0.0703125 2.5546875 C0.04710938 1.71164063 0.02390625 0.86859375 0 0 Z " fill="#127161" transform="translate(93,111)"/>
<path d="M0 0 C0.66 0 1.32 0 2 0 C2.33 0.66 2.66 1.32 3 2 C3.33 1.34 3.66 0.68 4 0 C4.66 0 5.32 0 6 0 C8.8352113 5.5522888 9.37952295 9.80112515 9 16 C8.34 15.34 7.68 14.68 7 14 C7 12.68 7 11.36 7 10 C6.34 10 5.68 10 5 10 C5 21.55 5 33.1 5 45 C4.01 45.495 4.01 45.495 3 46 C1.95191959 47.97522846 0.9479589 49.97481509 0 52 C-2.12046792 48.46588679 -2.53199289 45.05606165 -3 41 C-2.34 41 -1.68 41 -1 41 C-0.05135075 36.22721102 0.13171421 31.60534023 0.09765625 26.7578125 C0.0962413 25.98944061 0.09482635 25.22106873 0.09336853 24.42941284 C0.08780683 21.99456761 0.0752616 19.55981706 0.0625 17.125 C0.05748004 15.46614717 0.05291801 13.80729288 0.04882812 12.1484375 C0.03784998 8.0989223 0.02061206 4.04947716 0 0 Z " fill="#1C4E5E" transform="translate(175,50)"/>
<path d="M0 0 C2.31301995 3.46952992 2.24906428 5.02724556 2.375 9.125 C2.70585366 14.28745803 3.48913208 18.09101615 5.828125 22.67578125 C7.70763412 26.40347434 9.13512776 30.31809658 10.65625 34.203125 C13.02355443 39.13042144 15.50020072 42.22750396 20.625 44.25 C21.78902344 44.72179687 21.78902344 44.72179687 22.9765625 45.203125 C23.97816406 45.59757812 23.97816406 45.59757812 25 46 C25.66 46.33 26.32 46.66 27 47 C35.85893717 48.97512579 44.70506961 49.39840467 53.75 49.625 C55.03132813 49.66367188 56.31265625 49.70234375 57.6328125 49.7421875 C60.7550747 49.83538936 63.87734693 49.9211969 67 50 C67 50.66 67 51.32 67 52 C62.5212557 52.1986449 58.04200507 52.38189278 53.5625 52.5625 C52.30244141 52.61857422 51.04238281 52.67464844 49.74414062 52.73242188 C31.66096062 53.44064041 31.66096062 53.44064041 25 49 C23.69695652 48.49568401 22.38321979 48.01852212 21.0625 47.5625 C12.94939407 44.52388355 9.64173808 40.37146066 5.3203125 32.97265625 C3.99804354 29.99559506 3.70479418 28.20593522 4 25 C3.34 25 2.68 25 2 25 C1.86722656 24.21753906 1.73445313 23.43507813 1.59765625 22.62890625 C1.42105469 21.61699219 1.24445312 20.60507813 1.0625 19.5625 C0.80146484 18.04849609 0.80146484 18.04849609 0.53515625 16.50390625 C0.25248903 14.0712562 0.25248903 14.0712562 -1 13 C-1.09879565 11.189715 -1.12971514 9.37547273 -1.125 7.5625 C-1.12757812 6.57378906 -1.13015625 5.58507812 -1.1328125 4.56640625 C-1 2 -1 2 0 0 Z " fill="#41381C" transform="translate(41,96)"/>
<path d="M0 0 C1.3125 2.125 1.3125 2.125 2 4 C0.906875 3.814375 -0.18625 3.62875 -1.3125 3.4375 C-4.93624133 2.7421932 -4.93624133 2.7421932 -8 4 C-7.4118332 7.02485781 -6.75929472 10.01386614 -6 13 C-7.43294498 13.84114171 -8.87154405 14.67265687 -10.3125 15.5 C-11.51326172 16.19609375 -11.51326172 16.19609375 -12.73828125 16.90625 C-15 18 -15 18 -18 18 C-18 18.66 -18 19.32 -18 20 C-17.01 20.33 -16.02 20.66 -15 21 C-19.95 21.495 -19.95 21.495 -25 22 C-25.33 22.99 -25.66 23.98 -26 25 C-26.33 22.03 -26.66 19.06 -27 16 C-25.68 16 -24.36 16 -23 16 C-23 15.01 -23 14.02 -23 13 C-19.7 12.67 -16.4 12.34 -13 12 C-13.06028813 9.08419293 -13.06028813 9.08419293 -14 6 C-19.85992365 2.05275543 -27.01881225 0.40276083 -34 0 C-34 -0.33 -34 -0.66 -34 -1 C-27.96353442 -1.28745074 -23.55777301 -0.82168267 -17.9453125 1.44140625 C-15.81343521 2.25213252 -15.81343521 2.25213252 -13 1 C-13 0.34 -13 -0.32 -13 -1 C-4.06966434 -2.51361621 -4.06966434 -2.51361621 0 0 Z " fill="#382152" transform="translate(157,87)"/>
<path d="M0 0 C1.06283203 -0.00128906 2.12566406 -0.00257812 3.22070312 -0.00390625 C4.33509766 -0.00003906 5.44949219 0.00382812 6.59765625 0.0078125 C7.70818359 0.00394531 8.81871094 0.00007813 9.96289062 -0.00390625 C11.55907227 -0.00197266 11.55907227 -0.00197266 13.1875 0 C14.65304321 0.00169189 14.65304321 0.00169189 16.14819336 0.00341797 C18.66015625 0.1328125 18.66015625 0.1328125 21.66015625 1.1328125 C23.38880043 1.13705327 25.11800052 1.07664964 26.84375 0.9765625 C27.85373047 0.92371094 28.86371094 0.87085937 29.90429688 0.81640625 C32.02930976 0.69423426 34.15430983 0.57183924 36.27929688 0.44921875 C37.79620117 0.36994141 37.79620117 0.36994141 39.34375 0.2890625 C40.26728271 0.23556641 41.19081543 0.18207031 42.14233398 0.12695312 C44.52793613 0.1325048 46.37816019 0.49790856 48.66015625 1.1328125 C50.73540132 1.00753045 50.73540132 1.00753045 52.78515625 0.6328125 C56.66015625 0.1328125 56.66015625 0.1328125 58.66015625 1.1328125 C58.66015625 2.1228125 58.66015625 3.1128125 58.66015625 4.1328125 C59.71203125 3.3903125 59.71203125 3.3903125 60.78515625 2.6328125 C64.03135344 0.9391444 66.05355781 0.88118935 69.66015625 1.1328125 C69.66015625 1.7928125 69.66015625 2.4528125 69.66015625 3.1328125 C70.65015625 3.4628125 71.64015625 3.7928125 72.66015625 4.1328125 C71.0567407 4.46974035 69.4523907 4.80222343 67.84765625 5.1328125 C66.95433594 5.3184375 66.06101562 5.5040625 65.140625 5.6953125 C61.65565659 6.30998409 58.29160843 6.08464048 54.7734375 5.9140625 C53.83564453 5.86894531 52.89785156 5.82382813 51.93164062 5.77734375 C50.95517578 5.72964844 49.97871094 5.68195313 48.97265625 5.6328125 C47.98458984 5.58511719 46.99652344 5.53742188 45.97851562 5.48828125 C43.53903078 5.37043174 41.0995801 5.25191695 38.66015625 5.1328125 C38.66015625 4.4728125 38.66015625 3.8128125 38.66015625 3.1328125 C36.03488436 3.07899144 33.41070912 3.03922937 30.78515625 3.0078125 C29.66560547 2.98267578 29.66560547 2.98267578 28.5234375 2.95703125 C26.56821164 2.9394166 24.61273604 3.02961061 22.66015625 3.1328125 C22.00015625 3.7928125 21.34015625 4.4528125 20.66015625 5.1328125 C19.67015625 5.1328125 18.68015625 5.1328125 17.66015625 5.1328125 C17.66015625 4.4728125 17.66015625 3.8128125 17.66015625 3.1328125 C5.78015625 3.1328125 -6.09984375 3.1328125 -18.33984375 3.1328125 C-18.33984375 5.1128125 -18.33984375 7.0928125 -18.33984375 9.1328125 C-18.66984375 9.1328125 -18.99984375 9.1328125 -19.33984375 9.1328125 C-19.33984375 6.8228125 -19.33984375 4.5128125 -19.33984375 2.1328125 C-18.49679688 2.07222656 -17.65375 2.01164062 -16.78515625 1.94921875 C-15.68945312 1.86542969 -14.59375 1.78164062 -13.46484375 1.6953125 C-12.37429687 1.61410156 -11.28375 1.53289062 -10.16015625 1.44921875 C-6.50022438 1.03861698 -3.80975492 0.00440325 0 0 Z " fill="#1A2521" transform="translate(71.33984375,94.8671875)"/>
<path d="M0 0 C6.0546875 -0.1953125 6.0546875 -0.1953125 8 0 C8.66 0.66 9.32 1.32 10 2 C12.57061311 2.64767793 12.57061311 2.64767793 15 3 C15 2.34 15 1.68 15 1 C18.42232972 -0.14077657 21.08673217 -0.09815117 24.6875 -0.0625 C26.45673828 -0.04896484 26.45673828 -0.04896484 28.26171875 -0.03515625 C29.16535156 -0.02355469 30.06898437 -0.01195313 31 0 C30.67 1.32 30.34 2.64 30 4 C34.29 4.33 38.58 4.66 43 5 C42.67 5.66 42.34 6.32 42 7 C41.40309357 6.99777939 40.80618713 6.99555878 40.19119263 6.99327087 C33.99481808 6.97119703 27.79845465 6.95608458 21.60205078 6.94506836 C19.28759304 6.94003057 16.9731385 6.93320019 14.65869141 6.92456055 C11.3375571 6.91247076 8.01646475 6.90676625 4.6953125 6.90234375 C3.65569366 6.89718246 2.61607483 6.89202118 1.54495239 6.88670349 C0.58410736 6.88662796 -0.37673767 6.88655243 -1.36669922 6.88647461 C-2.21497284 6.884254 -3.06324646 6.88203339 -3.93722534 6.87974548 C-6.06402393 6.86767816 -6.06402393 6.86767816 -8 8 C-8 7.01 -8 6.02 -8 5 C-5.69 5 -3.38 5 -1 5 C-0.67 3.35 -0.34 1.7 0 0 Z " fill="#338875" transform="translate(62,101)"/>
<path d="M0 0 C0 9.9 0 19.8 0 30 C0.66 30.33 1.32 30.66 2 31 C1.375 32.875 1.375 32.875 0 35 C-3.125 36.25 -3.125 36.25 -6 37 C-6 37.66 -6 38.32 -6 39 C-7.95890881 40.39300182 -9.9639118 41.72245446 -12 43 C-12.99 43.66 -13.98 44.32 -15 45 C-17.69921875 44.9765625 -17.69921875 44.9765625 -20.6875 44.625 C-21.68136719 44.51414063 -22.67523438 44.40328125 -23.69921875 44.2890625 C-24.45847656 44.19367188 -25.21773438 44.09828125 -26 44 C-26 43.34 -26 42.68 -26 42 C-25.21496094 41.74605469 -24.42992188 41.49210937 -23.62109375 41.23046875 C-12.6437936 38.45364999 -12.6437936 38.45364999 -4 32 C-2.92631851 26.33540457 -2.8806387 20.81423919 -2.9375 15.0625 C-2.94201172 14.18787109 -2.94652344 13.31324219 -2.95117188 12.41210938 C-2.96285166 10.27470953 -2.98078311 8.13734537 -3 6 C-5.31 5.34 -7.62 4.68 -10 4 C-9.34 3.67 -8.68 3.34 -8 3 C-8 2.34 -8 1.68 -8 1 C-3.375 -1.125 -3.375 -1.125 0 0 Z " fill="#2C171C" transform="translate(152,104)"/>
<path d="M0 0 C10.89 0 21.78 0 33 0 C32.34 1.32 31.68 2.64 31 4 C28.3359375 4.71484375 28.3359375 4.71484375 25 5 C23.19402344 5.15662109 23.19402344 5.15662109 21.3515625 5.31640625 C20.12179688 5.39761719 18.89203125 5.47882813 17.625 5.5625 C16.37976563 5.64628906 15.13453125 5.73007813 13.8515625 5.81640625 C12.44003906 5.90728516 12.44003906 5.90728516 11 6 C11.99 6.66 12.98 7.32 14 8 C6.41 8 -1.18 8 -9 8 C-9 7.67 -9 7.34 -9 7 C-4.38 7 0.24 7 5 7 C5 6.34 5 5.68 5 5 C3.68 4.67 2.36 4.34 1 4 C0.67 2.68 0.34 1.36 0 0 Z " fill="#170B04" transform="translate(58,180)"/>
<path d="M0 0 C2.39763185 2.39763185 2.34280586 3.33273498 2.625 6.625 C2.69976562 7.44226563 2.77453125 8.25953125 2.8515625 9.1015625 C2.92503906 10.04128906 2.92503906 10.04128906 3 11 C3.33 11 3.66 11 4 11 C4 12.98 4 14.96 4 17 C7.3 17.33 10.6 17.66 14 18 C14 18.99 14 19.98 14 21 C10.04 21.33 6.08 21.66 2 22 C2 25.3 2 28.6 2 32 C0 29 0 29 0 27 C-0.99 26.67 -1.98 26.34 -3 26 C-4.00565379 23.24353931 -4.28071951 20.34421098 -4.625 17.4375 C-4.72039062 16.67308594 -4.81578125 15.90867187 -4.9140625 15.12109375 C-5 13 -5 13 -4 10 C-3.01 10 -2.02 10 -1 10 C-0.67 6.7 -0.34 3.4 0 0 Z " fill="#0D0D1F" transform="translate(186,58)"/>
<path d="M0 0 C3.4578598 0.0107387 6.91520266 0.00004979 10.37304688 -0.01269531 C12.60221467 -0.0113739 14.83138215 -0.00881188 17.06054688 -0.00488281 C18.07855377 -0.00893127 19.09656067 -0.01297974 20.14541626 -0.01715088 C37.66901996 0.09577777 37.66901996 0.09577777 41.83398438 4.26074219 C40.18398437 4.59074219 38.53398437 4.92074219 36.83398438 5.26074219 C36.83398438 4.60074219 36.83398438 3.94074219 36.83398438 3.26074219 C36.27936523 3.26074219 35.72474609 3.26074219 35.15332031 3.26074219 C13.83398438 3.26074219 13.83398438 3.26074219 11.76367188 3.22558594 C7.66913419 3.06228484 7.66913419 3.06228484 3.83398438 4.26074219 C1.83365965 3.92936309 -0.1662641 3.59556297 -2.16601562 3.26074219 C-5.00020306 3.11164916 -7.82846277 3.11843448 -10.66601562 3.13574219 C-11.84272827 3.13973022 -11.84272827 3.13973022 -13.04321289 3.14379883 C-27.1238422 2.35475129 -27.1238422 2.35475129 -39.16601562 7.26074219 C-39.16601562 6.60074219 -39.16601562 5.94074219 -39.16601562 5.26074219 C-39.82601562 4.93074219 -40.48601563 4.60074219 -41.16601562 4.26074219 C-27.70965554 -0.42893094 -14.0860159 -0.05211104 0 0 Z " fill="#1B100C" transform="translate(94.166015625,85.7392578125)"/>
<path d="M0 0 C0.99 0 1.98 0 3 0 C2.35425037 3.9821227 1.63575716 6.74430487 -1.71484375 9.31640625 C-13.7234057 16.04879863 -28.68722658 15.16335199 -42.0625 15.3125 C-43.64248779 15.33920776 -43.64248779 15.33920776 -45.25439453 15.36645508 C-46.2339209 15.36540771 -47.21344727 15.36436035 -48.22265625 15.36328125 C-49.09672119 15.36626221 -49.97078613 15.36924316 -50.87133789 15.37231445 C-51.92502563 15.1880188 -51.92502563 15.1880188 -53 15 C-53.66 14.01 -54.32 13.02 -55 12 C-54.23558594 11.98018066 -53.47117188 11.96036133 -52.68359375 11.93994141 C-26.07369505 13.1808124 -26.07369505 13.1808124 -2.1875 4.3125 C-1.795625 3.879375 -1.40375 3.44625 -1 3 C-0.34 3 0.32 3 1 3 C0.505 1.515 0.505 1.515 0 0 Z " fill="#2B152C" transform="translate(197,176)"/>
<path d="M0 0 C2.54596428 3.81894642 2.2616177 6.89334672 2.1875 11.3125 C2.17960449 12.11196045 2.17170898 12.9114209 2.16357422 13.73510742 C1.88187695 33.66221371 1.88187695 33.66221371 -1 40 C-1.66 40 -2.32 40 -3 40 C-3.33 41.32 -3.66 42.64 -4 44 C-5.32 43.67 -6.64 43.34 -8 43 C-8 32 -8 21 -8 10 C-7.34 10.33 -6.68 10.66 -6 11 C-5.71177001 13.6297272 -5.53211675 16.17476975 -5.4375 18.8125 C-5.26415224 24.98430193 -5.26415224 24.98430193 -4 31 C-3.34 29.02 -2.68 27.04 -2 25 C-1.67 25 -1.34 25 -1 25 C-0.83087172 22.14596025 -0.66462837 19.29179998 -0.5 16.4375 C-0.45230469 15.63763672 -0.40460938 14.83777344 -0.35546875 14.01367188 C-0.08799094 9.33281023 0.05034541 4.68841621 0 0 Z " fill="#3E275F" transform="translate(159,91)"/>
<path d="M0 0 C2.125 0.375 2.125 0.375 4 1 C4.01417969 1.59167969 4.02835937 2.18335937 4.04296875 2.79296875 C4.09066406 3.58316406 4.13835937 4.37335938 4.1875 5.1875 C4.22230469 5.96480469 4.25710937 6.74210937 4.29296875 7.54296875 C5.36180768 11.25733165 6.90375039 12.70175286 10 15 C13.10683955 15.72236099 16.13173559 15.78990578 19.3125 15.8125 C20.14845703 15.83763672 20.98441406 15.86277344 21.84570312 15.88867188 C23.89663409 15.9472699 25.94836593 15.97656493 28 16 C21.43657506 21.03195912 15.86375645 20.25945825 7.79296875 19.90234375 C6 19.625 6 19.625 3 18 C0.18014344 13.24257329 -1.72338318 7.53233637 -2 2 C-1.34 1.34 -0.68 0.68 0 0 Z " fill="#056657" transform="translate(62,110)"/>
<path d="M0 0 C0.66 0.99 1.32 1.98 2 3 C1.360625 3.78375 0.72125 4.5675 0.0625 5.375 C-3.84669954 10.35034487 -3.37570846 14.84012869 -3 21 C-2.39072482 23.01822402 -1.73519522 25.02416285 -1 27 C-0.875 30.375 -0.875 30.375 -1 33 C-0.34 33 0.32 33 1 33 C1.25523438 33.87011719 1.25523438 33.87011719 1.515625 34.7578125 C3.08097511 39.80356871 4.84684491 43.75955006 8 48 C6.515 48.495 6.515 48.495 5 49 C4.62875 48.236875 4.2575 47.47375 3.875 46.6875 C2.83500746 44.58275318 1.73773478 42.54211072 0.5703125 40.50390625 C-2.47641383 35.16076679 -4.82595594 30.15797912 -6.359375 24.19140625 C-6.92957438 21.96782485 -6.92957438 21.96782485 -8.078125 19.96484375 C-9 18 -9 18 -9 14 C-8.34 14 -7.68 14 -7 14 C-7.37125 12.63875 -7.37125 12.63875 -7.75 11.25 C-7.8325 10.1775 -7.915 9.105 -8 8 C-6.0625 5.75 -6.0625 5.75 -4 4 C-4 3.34 -4 2.68 -4 2 C-2.68 1.34 -1.36 0.68 0 0 Z " fill="#291D07" transform="translate(44,88)"/>
<path d="M0 0 C2.64 0 5.28 0 8 0 C8 0.66 8 1.32 8 2 C8.66386719 1.97679688 9.32773438 1.95359375 10.01171875 1.9296875 C18.78207381 1.75043937 18.78207381 1.75043937 23 4 C23 3.34 23 2.68 23 2 C24.98 2 26.96 2 29 2 C30.125 5.75 30.125 5.75 29 8 C9.2 7.505 9.2 7.505 -11 7 C-10.34 6.67 -9.68 6.34 -9 6 C-8.67 5.34 -8.34 4.68 -8 4 C-6.22880197 4.14133499 -4.45804713 4.28823208 -2.6875 4.4375 C-1.70136719 4.51871094 -0.71523437 4.59992188 0.30078125 4.68359375 C3 5 3 5 6 6 C6 4.68 6 3.36 6 2 C4.02 2 2.04 2 0 2 C0 1.34 0 0.68 0 0 Z " fill="#2E5D52" transform="translate(101,99)"/>
<path d="M0 0 C0.86906982 0.03464355 1.73813965 0.06928711 2.63354492 0.10498047 C7.29783784 0.35492687 11.14939441 1.04466507 15.5625 2.6875 C18.22951495 3.16024847 20.86433576 3.40837956 23.5625 3.6875 C23.5625 4.3475 23.5625 5.0075 23.5625 5.6875 C22.0625 6.875 22.0625 6.875 19.5625 7.6875 C15.875 6.375 15.875 6.375 14.05078125 5.51171875 C7.16680413 3.23146887 -0.5393647 3.5053605 -7.72265625 3.37109375 C-9.13519936 3.3399221 -9.13519936 3.3399221 -10.57627869 3.30812073 C-13.55078645 3.24333222 -16.5253738 3.18407299 -19.5 3.125 C-21.53060681 3.08174735 -23.56120591 3.03813104 -25.59179688 2.99414062 C-30.54028541 2.88772457 -35.48885306 2.78626334 -40.4375 2.6875 C-40.4375 2.3575 -40.4375 2.0275 -40.4375 1.6875 C-27.02580493 -0.13365077 -13.51751971 -0.59057705 0 0 Z " fill="#492B2D" transform="translate(120.4375,82.3125)"/>
<path d="M0 0 C2.75589777 0.01747927 5.38786676 0.13863271 8.125 0.375 C8.87910156 0.43171875 9.63320312 0.4884375 10.41015625 0.546875 C12.27418096 0.6884465 14.13721137 0.84299959 16 1 C16 1.66 16 2.32 16 3 C16.62044189 2.99476318 17.24088379 2.98952637 17.88012695 2.98413086 C20.69090767 2.96334534 23.50167221 2.95033483 26.3125 2.9375 C27.28896484 2.92912109 28.26542969 2.92074219 29.27148438 2.91210938 C30.20927734 2.90888672 31.14707031 2.90566406 32.11328125 2.90234375 C32.97735596 2.89710693 33.84143066 2.89187012 34.73168945 2.88647461 C37 3 37 3 40 4 C40 4.66 40 5.32 40 6 C38.68 6 37.36 6 36 6 C36 5.34 36 4.68 36 4 C34.02 4 32.04 4 30 4 C30 4.66 30 5.32 30 6 C29.071875 5.7834375 29.071875 5.7834375 28.125 5.5625 C23.77462983 4.77943337 19.39978093 4.40153341 15 4 C15 3.34 15 2.68 15 2 C12.36 2 9.72 2 7 2 C7 2.66 7 3.32 7 4 C8.98 4 10.96 4 13 4 C13 5.32 13 6.64 13 8 C6.07 7.505 6.07 7.505 -1 7 C-1 6.01 -1 5.02 -1 4 C-4.63 4 -8.26 4 -12 4 C-12 3.67 -12 3.34 -12 3 C-10.95199219 2.92652344 -10.95199219 2.92652344 -9.8828125 2.8515625 C-8.97273438 2.77679688 -8.06265625 2.70203125 -7.125 2.625 C-6.22007813 2.55539063 -5.31515625 2.48578125 -4.3828125 2.4140625 C-1.82058097 2.20431868 -1.82058097 2.20431868 0 0 Z " fill="#454539" transform="translate(94,97)"/>
<path d="M0 0 C0.99 0 1.98 0 3 0 C2.01 5.28 1.02 10.56 0 16 C0.66 16 1.32 16 2 16 C2.17015625 16.80824219 2.3403125 17.61648437 2.515625 18.44921875 C4.29789561 26.43285173 4.29789561 26.43285173 9 33 C11 36.5 11 36.5 11 39 C11.99 39.33 12.98 39.66 14 40 C14 40.66 14 41.32 14 42 C12.35 42 10.7 42 9 42 C-4.09409888 16.59744817 -4.09409888 16.59744817 -3 5 C-1.6875 2.0625 -1.6875 2.0625 0 0 Z " fill="#0E0E02" transform="translate(45,94)"/>
<path d="M0 0 C1.2375 0.45375 2.475 0.9075 3.75 1.375 C14.19174084 4.82053183 24.83065179 5.35144639 35.75 5.625 C37.03132813 5.66367188 38.31265625 5.70234375 39.6328125 5.7421875 C42.7550747 5.83538936 45.87734693 5.9211969 49 6 C49 6.66 49 7.32 49 8 C44.5212557 8.1986449 40.04200507 8.38189278 35.5625 8.5625 C34.30244141 8.61857422 33.04238281 8.67464844 31.74414062 8.73242188 C13.66096062 9.44064041 13.66096062 9.44064041 7 5 C4.36173236 3.90402792 1.69295975 2.9585111 -1 2 C-0.67 1.34 -0.34 0.68 0 0 Z " fill="#29221C" transform="translate(59,140)"/>
<path d="M0 0 C0.33 0 0.66 0 1 0 C1.04966189 4.44741318 1.08584293 8.8946768 1.10986328 13.34228516 C1.11988339 14.85338149 1.13350321 16.36445862 1.15087891 17.87548828 C1.17530392 20.05506142 1.18652307 22.23437684 1.1953125 24.4140625 C1.20578613 25.7232666 1.21625977 27.0324707 1.22705078 28.38134766 C1.00366763 31.9415466 0.2935223 34.69234262 -1 38 C-1.66 38 -2.32 38 -3 38 C-2.01 41.3 -1.02 44.6 0 48 C0.33 47.34 0.66 46.68 1 46 C2.64363134 45.27840576 4.31050386 44.60648579 6 44 C4.61043975 47.35810395 3.17473533 49.18586552 0 51 C-2.75 51.1875 -2.75 51.1875 -5 51 C-6.84651134 47.88401212 -7.38079379 45.61754103 -7 42 C-6.34 41.34 -5.68 40.68 -5 40 C-4.19759863 37.71188018 -3.47894372 35.39385005 -2.8125 33.0625 C-2.44769531 31.81597656 -2.08289063 30.56945312 -1.70703125 29.28515625 C-0.71200077 26.01607423 -0.71200077 26.01607423 -2 23 C-1.34 23 -0.68 23 0 23 C-0.03552979 22.40985107 -0.07105957 21.81970215 -0.10766602 21.21166992 C-0.26529374 18.53726172 -0.41399466 15.8624296 -0.5625 13.1875 C-0.61857422 12.25873047 -0.67464844 11.32996094 -0.73242188 10.37304688 C-0.78076172 9.48037109 -0.82910156 8.58769531 -0.87890625 7.66796875 C-0.9260376 6.84578857 -0.97316895 6.0236084 -1.02172852 5.17651367 C-1 3 -1 3 0 0 Z " fill="#0E0C22" transform="translate(175,53)"/>
<path d="M0 0 C7.8765416 -0.02331808 15.75307489 -0.04101325 23.62964249 -0.05181217 C27.28826377 -0.05699885 30.94686119 -0.06401852 34.60546875 -0.07543945 C38.14571106 -0.08641991 41.68593062 -0.09230845 45.22618866 -0.09487724 C47.21332043 -0.09758498 49.20044323 -0.1053721 51.18756104 -0.11329651 C58.84433006 -0.11376276 66.38207063 0.22151298 74 1 C74 1.33 74 1.66 74 2 C67.39864971 2.77016663 60.9172047 3.13930423 54.2734375 3.09765625 C52.96289902 3.09553383 52.96289902 3.09553383 51.62588501 3.09336853 C48.87555297 3.08783674 46.12530682 3.07529774 43.375 3.0625 C41.49349077 3.05747616 39.61198025 3.05291481 37.73046875 3.04882812 C33.15361348 3.03788979 28.57682123 3.02067362 24 3 C24 2.67 24 2.34 24 2 C16.08 1.67 8.16 1.34 0 1 C0 0.67 0 0.34 0 0 Z " fill="#3C1B17" transform="translate(80,188)"/>
<path d="M0 0 C2.9917248 2.48053373 3.7421867 4.77876671 4.6875 8.5 C5.06455078 9.93859375 5.06455078 9.93859375 5.44921875 11.40625 C6 14 6 14 6 17 C5.34 17 4.68 17 4 17 C4.165 17.825 4.33 18.65 4.5 19.5 C5.62404739 27.36833175 5.16077738 33.97868817 1 41 C0.01 41.495 0.01 41.495 -1 42 C-0.84660156 41.30261719 -0.69320312 40.60523438 -0.53515625 39.88671875 C1.07370186 31.20827973 1.09538337 22.24261291 1.125 13.4375 C1.12959229 12.67606689 1.13418457 11.91463379 1.13891602 11.13012695 C1.12826204 7.295975 0.92974148 3.72634482 0 0 Z " fill="#1A142D" transform="translate(159,89)"/>
<path d="M0 0 C4.62 0 9.24 0 14 0 C13.67 3.96 13.34 7.92 13 12 C12.67 12 12.34 12 12 12 C12 9.03 12 6.06 12 3 C9.03 3 6.06 3 3 3 C3.33 4.32 3.66 5.64 4 7 C4.17002546 9.69540361 4.08877822 12.29226438 4 15 C3 16 3 16 0.86694336 16.11352539 C-0.04949951 16.10828857 -0.96594238 16.10305176 -1.91015625 16.09765625 C-2.89951172 16.09443359 -3.88886719 16.09121094 -4.90820312 16.08789062 C-5.94912109 16.07951172 -6.99003906 16.07113281 -8.0625 16.0625 C-9.10728516 16.05798828 -10.15207031 16.05347656 -11.22851562 16.04882812 C-13.8190666 16.03699913 -16.40950559 16.02051689 -19 16 C-19 15.67 -19 15.34 -19 15 C-14.05 15 -9.1 15 -4 15 C-4 14.34 -4 13.68 -4 13 C-2.68 13 -1.36 13 0 13 C0 8.71 0 4.42 0 0 Z " fill="#C6F7F2" transform="translate(90,108)"/>
<path d="M0 0 C1.65 0.33 3.3 0.66 5 1 C5 4.63 5 8.26 5 12 C3.02 12.99 3.02 12.99 1 14 C0.01 12.68 -0.98 11.36 -2 10 C-3.175625 10.7425 -3.175625 10.7425 -4.375 11.5 C-7 13 -7 13 -9 13 C-9 13.66 -9 14.32 -9 15 C-10.65 15 -12.3 15 -14 15 C-14 14.34 -14 13.68 -14 13 C-12.37750059 12.16180842 -10.75191503 11.3295884 -9.125 10.5 C-8.22007812 10.0359375 -7.31515625 9.571875 -6.3828125 9.09375 C-4 8 -4 8 -2 8 C-2.04125 7.05125 -2.0825 6.1025 -2.125 5.125 C-2 2 -2 2 0 0 Z " fill="#6E2D89" transform="translate(153,92)"/>
<path d="M0 0 C0.33 0 0.66 0 1 0 C1.10957031 1.09699219 1.21914062 2.19398438 1.33203125 3.32421875 C1.49155666 4.77871516 1.65174813 6.23313863 1.8125 7.6875 C1.88275391 8.40873047 1.95300781 9.12996094 2.02539062 9.87304688 C2.53297929 14.31952359 3.44214522 17.22278432 6 21 C6 21.66 6 22.32 6 23 C6.66 23 7.32 23 8 23 C8.66 23.99 9.32 24.98 10 26 C10.99 26.33 11.98 26.66 13 27 C13 27.66 13 28.32 13 29 C14.32 29.33 15.64 29.66 17 30 C17.103125 30.639375 17.20625 31.27875 17.3125 31.9375 C17.539375 32.618125 17.76625 33.29875 18 34 C19.485 34.495 19.485 34.495 21 35 C19.515 35.495 19.515 35.495 18 36 C9.40939701 31.21266707 3.36039283 25.47436897 0.1875 16.1875 C-1.17928861 11.15277586 -1.54556943 6.19340127 -1 1 C-0.67 0.67 -0.34 0.34 0 0 Z " fill="#201810" transform="translate(6,153)"/>
<path d="M0 0 C0 0.33 0 0.66 0 1 C-0.95519531 0.98839844 -1.91039062 0.97679688 -2.89453125 0.96484375 C-17.53667409 0.86265532 -31.34505572 2.60002571 -45.6875 5.5 C-47.37842773 5.83837891 -47.37842773 5.83837891 -49.10351562 6.18359375 C-55.57852238 7.47285577 -55.57852238 7.47285577 -62 9 C-57.93332228 2.89998341 -47.68225546 2.2571691 -40.75 0.8125 C-27.54798879 -1.40089357 -13.24270101 -1.92621106 0 0 Z " fill="#301E16" transform="translate(112,80)"/>
<path d="M0 0 C2.97 0 5.94 0 9 0 C9.1953125 2.21354167 9.390625 4.42708333 9.5859375 6.640625 C10.01507113 9.085877 10.78600638 10.84836903 12 13 C11.01 13 10.02 13 9 13 C9 12.34 9 11.68 9 11 C8.34 11 7.68 11 7 11 C7 10.34 7 9.68 7 9 C6.34 9 5.68 9 5 9 C4.773125 9.61875 4.54625 10.2375 4.3125 10.875 C2.62070165 13.61410209 1.00755839 14.05024472 -2 15 C-1.34 14.01 -0.68 13.02 0 12 C0.24219315 9.02550392 0.24219315 9.02550392 0.125 5.8125 C0.10695313 4.72582031 0.08890625 3.63914062 0.0703125 2.51953125 C0.04710938 1.68808594 0.02390625 0.85664062 0 0 Z " fill="#0B7261" transform="translate(93,111)"/>
<path d="M0 0 C1.76923828 0.01353516 1.76923828 0.01353516 3.57421875 0.02734375 C4.47785156 0.03894531 5.38148437 0.05054687 6.3125 0.0625 C5.9825 1.3825 5.6525 2.7025 5.3125 4.0625 C9.6025 4.3925 13.8925 4.7225 18.3125 5.0625 C17.9825 5.7225 17.6525 6.3825 17.3125 7.0625 C12.0325 7.0625 6.7525 7.0625 1.3125 7.0625 C1.3125 6.4025 1.3125 5.7425 1.3125 5.0625 C-1.9875 4.7325 -5.2875 4.4025 -8.6875 4.0625 C-9.0175 3.0725 -9.3475 2.0825 -9.6875 1.0625 C-6.26517028 -0.07827657 -3.60076783 -0.03565117 0 0 Z " fill="#667454" transform="translate(86.6875,100.9375)"/>
<path d="M0 0 C2.45518025 2.45518025 2.2454567 3.82752068 2.27789307 7.17958069 C2.2738446 7.88473312 2.26979614 8.58988556 2.265625 9.31640625 C2.26753845 10.04689682 2.2694519 10.77738739 2.27142334 11.53001404 C2.27278613 13.08096662 2.26908311 14.63193057 2.26074219 16.18286133 C2.25015087 18.52907869 2.26057759 20.87451138 2.2734375 23.22070312 C2.28099461 30.66833571 2.2881944 37.83730697 0 45 C-0.99 45.495 -0.99 45.495 -2 46 C-1.90150757 45.12541138 -1.90150757 45.12541138 -1.80102539 44.2331543 C-0.86641487 35.10589729 -0.66554371 25.97799567 -0.4375 16.8125 C-0.39420212 15.17642374 -0.3505847 13.54035591 -0.30664062 11.90429688 C-0.20074659 7.93628532 -0.09916477 3.96818519 0 0 Z " fill="#83DDE0" transform="translate(177,54)"/>
<path d="M0 0 C10.89 0 21.78 0 33 0 C32.34 1.32 31.68 2.64 31 4 C29.25008666 4.02715383 27.50005055 4.04646551 25.75 4.0625 C24.28820312 4.07990234 24.28820312 4.07990234 22.796875 4.09765625 C20 4 20 4 18.06835938 3.51367188 C14.68532811 2.67350453 11.21886297 2.62442636 7.75 2.4375 C7.00492187 2.39431641 6.25984375 2.35113281 5.4921875 2.30664062 C3.661651 2.20103275 1.83084824 2.10005799 0 2 C0 1.34 0 0.68 0 0 Z " fill="#1E130D" transform="translate(58,180)"/>
<path d="M0 0 C0.66 0.99 1.32 1.98 2 3 C1.125 6.1875 1.125 6.1875 0 9 C2.31 9.33 4.62 9.66 7 10 C6.67 10.66 6.34 11.32 6 12 C4.35 11.67 2.7 11.34 1 11 C0.34 17.27 -0.32 23.54 -1 30 C-3.89093215 25.66360178 -3.32981191 21.78758976 -3.3125 16.6875 C-3.33666992 15.28081055 -3.33666992 15.28081055 -3.36132812 13.84570312 C-3.36512893 8.4523607 -2.97719099 4.68966497 0 0 Z " fill="#131714" transform="translate(21,42)"/>
<path d="M0 0 C0.05834395 3.87493616 0.09371201 7.74975836 0.125 11.625 C0.15013672 13.26662109 0.15013672 13.26662109 0.17578125 14.94140625 C0.23662606 24.98079979 0.23662606 24.98079979 -2 30 C-2.33 30 -2.66 30 -3 30 C-3 22.08 -3 14.16 -3 6 C-5.31 5.34 -7.62 4.68 -10 4 C-9.34 3.67 -8.68 3.34 -8 3 C-8 2.34 -8 1.68 -8 1 C-3.375 -1.125 -3.375 -1.125 0 0 Z " fill="#1E0C22" transform="translate(152,104)"/>
<path d="M0 0 C2.31 0.66 4.62 1.32 7 2 C6.01 2.33 5.02 2.66 4 3 C6.21057597 11.32833218 6.21057597 11.32833218 10 19 C12.07690578 19.96044102 12.07690578 19.96044102 14 20 C14 20.99 14 21.98 14 23 C12.02 23 10.04 23 8 23 C8.33 22.01 8.66 21.02 9 20 C8.37061523 19.90702637 7.74123047 19.81405273 7.09277344 19.71826172 C6.4021582 19.48123535 5.71154297 19.24420898 5 19 C3.86464463 16.32892711 3.01726635 13.89970534 2.25 11.125 C1.91935547 10.02478516 1.91935547 10.02478516 1.58203125 8.90234375 C0.68767725 5.85265215 0 3.19241577 0 0 Z " fill="#1A5249" transform="translate(56,109)"/>
<path d="M0 0 C0.66 0 1.32 0 2 0 C2 0.66 2 1.32 2 2 C3.65 2.33 5.3 2.66 7 3 C7 3.66 7 4.32 7 5 C7.99 5 8.98 5 10 5 C10 5.66 10 6.32 10 7 C11.32 7.66 12.64 8.32 14 9 C13.67 9.66 13.34 10.32 13 11 C12.43796875 10.50628906 11.8759375 10.01257813 11.296875 9.50390625 C8.60169072 7.73920226 7.41489243 7.73087486 4.25 7.9375 C-0.56554001 8.10182852 -4.3912965 7.36554178 -9 6 C-6.35261084 4.5393715 -5.10551666 4 -2 4 C-1.34 2.68 -0.68 1.36 0 0 Z " fill="#231D2F" transform="translate(145,78)"/>
<path d="M0 0 C-6.41352364 4.73379126 -11.15582576 5.22508683 -18.8515625 4.64453125 C-21.70468852 3.78859344 -23.05297641 2.19811035 -25 0 C-21.39627603 -0.19676145 -17.7920131 -0.38081639 -14.1875 -0.5625 C-13.16333984 -0.61857422 -12.13917969 -0.67464844 -11.08398438 -0.73242188 C-10.10107422 -0.78076172 -9.11816406 -0.82910156 -8.10546875 -0.87890625 C-7.19949951 -0.9260376 -6.29353027 -0.97316895 -5.36010742 -1.02172852 C-3 -1 -3 -1 0 0 Z " fill="#044137" transform="translate(132,128)"/>
<path d="M0 0 C1.61245225 3.22490449 0.81573082 5.56227727 0 9 C-3.93520583 14.83496037 -10.39972581 16.56720026 -17 18 C-21.02982887 18.28751893 -24.96998676 18.25723489 -29 18 C-29 17.67 -29 17.34 -29 17 C-27.87851563 16.92652344 -27.87851563 16.92652344 -26.734375 16.8515625 C-25.74953125 16.77679688 -24.7646875 16.70203125 -23.75 16.625 C-22.77546875 16.55539063 -21.8009375 16.48578125 -20.796875 16.4140625 C-18.05603469 16.00829564 -16.28941334 15.54377872 -14 14 C-13.67 13.01 -13.34 12.02 -13 11 C-10.69 11.66 -8.38 12.32 -6 13 C-6 12.01 -6 11.02 -6 10 C-5.34 10 -4.68 10 -4 10 C-3.67 7.03 -3.34 4.06 -3 1 C-2.01 0.67 -1.02 0.34 0 0 Z " fill="#150D11" transform="translate(149,127)"/>
<path d="M0 0 C0 0.66 0 1.32 0 2 C0.66 2 1.32 2 2 2 C2 2.66 2 3.32 2 4 C4.64 4.33 7.28 4.66 10 5 C10 5.33 10 5.66 10 6 C2.72190976 6.25096863 2.72190976 6.25096863 -0.8203125 5.01953125 C-5.48951296 3.52240432 -10.08092609 3.60072921 -14.953125 3.44140625 C-16.46132812 3.22291016 -16.46132812 3.22291016 -18 3 C-18.66 2.01 -19.32 1.02 -20 0 C-19.09636719 0.01160156 -18.19273438 0.02320312 -17.26171875 0.03515625 C-15.49248047 0.04869141 -15.49248047 0.04869141 -13.6875 0.0625 C-12.51574219 0.07410156 -11.34398438 0.08570312 -10.13671875 0.09765625 C-0.63820423 -0.19806338 -0.63820423 -0.19806338 0 0 Z " fill="#391E28" transform="translate(134,80)"/>
<path d="M0 0 C0.66 0 1.32 0 2 0 C2.33 2.97 2.66 5.94 3 9 C3.99 9.33 4.98 9.66 6 10 C6 10.66 6 11.32 6 12 C12.6 12.33 19.2 12.66 26 13 C25.67 13.66 25.34 14.32 25 15 C21.93601549 15.13530844 18.87802874 15.2342407 15.8125 15.3125 C14.94818359 15.35439453 14.08386719 15.39628906 13.19335938 15.43945312 C8.56667384 15.52808695 6.67226112 15.54142413 2.94921875 12.54296875 C2.30597656 11.70378906 1.66273437 10.86460938 1 10 C0.67 9.67 0.34 9.34 0 9 C-0.07179964 7.48071962 -0.08392007 5.95832518 -0.0625 4.4375 C-0.05347656 3.61121094 -0.04445313 2.78492187 -0.03515625 1.93359375 C-0.02355469 1.29550781 -0.01195313 0.65742187 0 0 Z " fill="#B9F2ED" transform="translate(66,111)"/>
<path d="M0 0 C1.01936646 0.20568604 1.01936646 0.20568604 2.05932617 0.41552734 C13.10334558 2.39295296 24.12272144 2.44780928 35.3125 2.625 C37.32488509 2.66326629 39.33725532 2.70232273 41.34960938 2.7421875 C46.23294941 2.83722998 51.11636565 2.92159668 56 3 C56 3.33 56 3.66 56 4 C49.57725687 4.16893001 43.15433163 4.32868469 36.73120117 4.48217773 C34.54788085 4.53542156 32.36460998 4.59073606 30.18139648 4.64819336 C27.03640399 4.73059804 23.89130669 4.80546088 20.74609375 4.87890625 C19.7760289 4.90594131 18.80596405 4.93297638 17.8065033 4.96083069 C4.86508422 5.24338948 4.86508422 5.24338948 0 2 C0 1.34 0 0.68 0 0 Z " fill="#392A08" transform="translate(24,185)"/>
<path d="M0 0 C1.3125 2.125 1.3125 2.125 2 4 C0.906875 3.814375 -0.18625 3.62875 -1.3125 3.4375 C-4.93624133 2.7421932 -4.93624133 2.7421932 -8 4 C-8.99 5.485 -8.99 5.485 -10 7 C-11.98 5.35 -13.96 3.7 -16 2 C-15.01 1.67 -14.02 1.34 -13 1 C-13 0.34 -13 -0.32 -13 -1 C-4.06966434 -2.51361621 -4.06966434 -2.51361621 0 0 Z " fill="#37294C" transform="translate(157,87)"/>
<path d="M0 0 C10.89 0 21.78 0 33 0 C29.78487773 3.21512227 26.08361445 2.97962652 21.67578125 3.0625 C20.01095703 3.0315625 20.01095703 3.0315625 18.3125 3 C13.57062371 2.91070164 13.57062371 2.91070164 9 4 C6.9921875 3.73046875 6.9921875 3.73046875 4.875 3.1875 C4.17117187 3.01605469 3.46734375 2.84460938 2.7421875 2.66796875 C1 2 1 2 0 0 Z " fill="#C1F5EA" transform="translate(55,107)"/>
<path d="M0 0 C1.67542976 0.28604898 3.34385343 0.61781233 5 1 C5 1.99 5 2.98 5 4 C5.70125 3.505 6.4025 3.01 7.125 2.5 C10.37119719 0.8063319 12.39340156 0.74837685 16 1 C16 1.66 16 2.32 16 3 C16.99 3.33 17.98 3.66 19 4 C17.39658445 4.33692785 15.79223445 4.66941093 14.1875 5 C13.29417969 5.185625 12.40085938 5.37125 11.48046875 5.5625 C6.95642772 6.36044109 3.25785981 5.47879482 -1.1875 4.5 C-2.45980469 4.2215625 -3.73210937 3.943125 -5.04296875 3.65625 C-6.50669922 3.33140625 -6.50669922 3.33140625 -8 3 C-8 2.34 -8 1.68 -8 1 C-6.865625 1.020625 -5.73125 1.04125 -4.5625 1.0625 C-1.18424326 1.41577477 -1.18424326 1.41577477 0 0 Z " fill="#181625" transform="translate(125,95)"/>
<path d="M0 0 C0.33 0 0.66 0 1 0 C1.04487549 0.59425781 1.08975098 1.18851562 1.13598633 1.80078125 C1.34939403 4.53495113 1.58082418 7.26731982 1.8125 10 C1.88275391 10.93457031 1.95300781 11.86914062 2.02539062 12.83203125 C2.41873584 17.33190046 2.94415515 21.29219249 4.63671875 25.5 C6 29 6 29 5 32 C4.525625 31.505 4.05125 31.01 3.5625 30.5 C2.24076302 28.88457803 2.24076302 28.88457803 1 29 C0.51891725 27.58398286 0.04021859 26.16715563 -0.4375 24.75 C-0.70433594 23.96109375 -0.97117187 23.1721875 -1.24609375 22.359375 C-1.91954708 20.25178012 -2.49150595 18.15246027 -3 16 C-2.34 15.67 -1.68 15.34 -1 15 C-0.68758629 12.45058627 -0.48696579 9.99638487 -0.375 7.4375 C-0.33632813 6.72658203 -0.29765625 6.01566406 -0.2578125 5.28320312 C-0.16328217 3.52257575 -0.08054183 1.76132272 0 0 Z " fill="#47716A" transform="translate(25,69)"/>
<path d="M0 0 C0.66 0.33 1.32 0.66 2 1 C2.26125082 3.62735198 2.42165499 6.17872511 2.5 8.8125 C2.63657042 13.33137435 2.82283462 16.96054852 5 21 C4.96986729 23.75212119 4.45482541 26.27104753 4 29 C3.34 29 2.68 29 2 29 C2.33 30.65 2.66 32.3 3 34 C2.01 33.67 1.02 33.34 0 33 C0 22 0 11 0 0 Z " fill="#512260" transform="translate(151,101)"/>
<path d="M0 0 C2.625 1.9375 2.625 1.9375 5 5 C5.14574512 8.32881848 4.48505704 11.02415212 3 14 C0.20097113 15.92433235 -1.58838002 17 -5 17 C-4.67 15.68 -4.34 14.36 -4 13 C-3.34 13 -2.68 13 -2 13 C-1.67 11.35 -1.34 9.7 -1 8 C-0.34 8 0.32 8 1 8 C0.67 7.34 0.34 6.68 0 6 C-0.039992 4.00039988 -0.04346799 1.99952758 0 0 Z " fill="#1B1331" transform="translate(182,82)"/>
<path d="M0 0 C2.47352021 2.47352021 2.32672635 3.52129024 2.5625 6.9375 C2.77706165 9.91071147 3.05019358 12.15058074 4 15 C3.67 15.66 3.34 16.32 3 17 C0.36 17 -2.28 17 -5 17 C-4.34 15.35 -3.68 13.7 -3 12 C-2.34 12 -1.68 12 -1 12 C-1.01160156 11.21753906 -1.02320313 10.43507813 -1.03515625 9.62890625 C-1.04417969 8.61699219 -1.05320313 7.60507813 -1.0625 6.5625 C-1.07410156 5.55316406 -1.08570313 4.54382813 -1.09765625 3.50390625 C-1 1 -1 1 0 0 Z " fill="#0A594A" transform="translate(132,111)"/>
<path d="M0 0 C0 0.66 0 1.32 0 2 C-6.6 2 -13.2 2 -20 2 C-20 2.66 -20 3.32 -20 4 C-21.65 4 -23.3 4 -25 4 C-25.33 5.98 -25.66 7.96 -26 10 C-26.33 10 -26.66 10 -27 10 C-27 6.7 -27 3.4 -27 0 C-17.85393643 -0.98753178 -9.15244374 -0.89191731 0 0 Z " fill="#20453E" transform="translate(80,98)"/>
<path d="M0 0 C3.25297488 0.80445425 6.4586993 0.64654453 9.78540039 0.59155273 C11.26261164 0.57891251 12.7398253 0.56655111 14.21704102 0.55444336 C16.53669801 0.52958022 18.85622904 0.50153349 21.17578125 0.46826172 C23.42066255 0.43808922 25.66538126 0.42030013 27.91040039 0.40405273 C28.60420303 0.39059311 29.29800568 0.37713348 30.01283264 0.36326599 C33.68414354 0.34410994 35.1346033 0.46628175 38.28149414 2.56420898 C32.63982423 2.61361398 26.99828001 2.64993091 21.35644531 2.67407227 C19.43682665 2.68413537 17.51722333 2.69778714 15.59765625 2.71508789 C12.83988662 2.73932262 10.0823195 2.7506889 7.32446289 2.75952148 C6.46499557 2.76984406 5.60552826 2.78016663 4.72001648 2.790802 C3.51911125 2.79102859 3.51911125 2.79102859 2.29394531 2.79125977 C1.59001144 2.79570099 0.88607758 2.80014221 0.16081238 2.80471802 C-1.71850586 2.56420898 -1.71850586 2.56420898 -4.71850586 0.56420898 C-1.71850586 -0.43579102 -1.71850586 -0.43579102 0 0 Z " fill="#1A1610" transform="translate(81.718505859375,143.435791015625)"/>
<path d="M0 0 C0.66 1.32 1.32 2.64 2 4 C3.22976562 3.98839844 4.45953125 3.97679687 5.7265625 3.96484375 C7.35937347 3.95545978 8.9921861 3.94636023 10.625 3.9375 C11.83736328 3.92493164 11.83736328 3.92493164 13.07421875 3.91210938 C17.5175297 3.89404714 21.61412057 4.2007356 26 5 C27.33981486 4.6937566 28.67511887 4.36548445 30 4 C30.99 4.33 31.98 4.66 33 5 C27.73973909 7.15696274 23.14393591 7.27041422 17.5625 7.1875 C16.74201172 7.18685547 15.92152344 7.18621094 15.07617188 7.18554688 C2.09228673 7.09228673 2.09228673 7.09228673 0 5 C-0.04063832 3.33382885 -0.042721 1.66611905 0 0 Z " fill="#092D26" transform="translate(62,130)"/>
<path d="M0 0 C0.33 0.66 0.66 1.32 1 2 C2.32 1.34 3.64 0.68 5 0 C5.22742222 6.14040005 4.86360591 12.09858129 3 18 C2.34 18.33 1.68 18.66 1 19 C-0.00926479 14.84373632 -0.10239579 10.95634906 -0.0625 6.6875 C-0.05347656 5.43324219 -0.04445312 4.17898437 -0.03515625 2.88671875 C-0.01775391 1.45779297 -0.01775391 1.45779297 0 0 Z " fill="#5C2373" transform="translate(153,104)"/>
<path d="M0 0 C1.32 0.33 2.64 0.66 4 1 C4.01417969 1.59167969 4.02835937 2.18335937 4.04296875 2.79296875 C4.09066406 3.58316406 4.13835937 4.37335938 4.1875 5.1875 C4.22230469 5.96480469 4.25710937 6.74210937 4.29296875 7.54296875 C5.36180768 11.25733165 6.90375039 12.70175286 10 15 C13.10683955 15.72236099 16.13173559 15.78990578 19.3125 15.8125 C20.14845703 15.83763672 20.98441406 15.86277344 21.84570312 15.88867188 C23.89663409 15.9472699 25.94836593 15.97656493 28 16 C28 16.33 28 16.66 28 17 C24.9166866 17.02911321 21.83340875 17.04683682 18.75 17.0625 C17.87730469 17.07087891 17.00460938 17.07925781 16.10546875 17.08789062 C15.26113281 17.09111328 14.41679688 17.09433594 13.546875 17.09765625 C12.38430176 17.10551147 12.38430176 17.10551147 11.19824219 17.11352539 C9.00716402 17.00036998 7.10362139 16.60552448 5 16 C4.87625 15.360625 4.7525 14.72125 4.625 14.0625 C4.41875 13.381875 4.2125 12.70125 4 12 C3.34 11.67 2.68 11.34 2 11 C1.62109375 9.00390625 1.62109375 9.00390625 1.4375 6.5625 C1.1938825 3.15371795 1.1938825 3.15371795 0 0 Z " fill="#2E9983" transform="translate(62,110)"/>
<path d="M0 0 C3.58317958 -0.08720919 7.16608567 -0.14046112 10.75 -0.1875 C11.76578125 -0.21263672 12.7815625 -0.23777344 13.828125 -0.26367188 C14.8078125 -0.27333984 15.7875 -0.28300781 16.796875 -0.29296875 C17.69760742 -0.3086792 18.59833984 -0.32438965 19.52636719 -0.34057617 C22.45308763 0.06238228 23.81341349 1.0655403 26 3 C22.04180389 3.08678303 18.08385066 3.14031733 14.125 3.1875 C12.43310547 3.22520508 12.43310547 3.22520508 10.70703125 3.26367188 C9.09248047 3.27817383 9.09248047 3.27817383 7.4453125 3.29296875 C5.95281982 3.31653442 5.95281982 3.31653442 4.43017578 3.34057617 C3.62821777 3.22818604 2.82625977 3.1157959 2 3 C1.34 2.01 0.68 1.02 0 0 Z " fill="#2E1222" transform="translate(142,188)"/>
<path d="M0 0 C0.99 0.33 1.98 0.66 3 1 C3.3721042 2.32303717 3.70630173 3.65737935 4 5 C4.66 5.33 5.32 5.66 6 6 C5.01 6.33 4.02 6.66 3 7 C2.34 6.67 1.68 6.34 1 6 C0.29875 6.474375 -0.4025 6.94875 -1.125 7.4375 C-5.01297037 9.55052738 -7.61686741 9.22287115 -12 9 C-8.59780735 6.25207517 -4.51535412 3 0 3 C0 2.01 0 1.02 0 0 Z " fill="#045648" transform="translate(96,121)"/>
<path d="M0 0 C1.2375 0.45375 2.475 0.9075 3.75 1.375 C8.63091073 3.03046813 13.49485063 3.7966658 18.59375 4.47265625 C19.78484375 4.73369141 19.78484375 4.73369141 21 5 C21.33 5.66 21.66 6.32 22 7 C13.09223974 7.4421131 6.90081514 6.2796082 -1 2 C-0.67 1.34 -0.34 0.68 0 0 Z " fill="#302B1D" transform="translate(59,140)"/>
<path d="M0 0 C4.62 0 9.24 0 14 0 C13.67 3.96 13.34 7.92 13 12 C12.67 12 12.34 12 12 12 C12 9.03 12 6.06 12 3 C9.03 3 6.06 3 3 3 C2.67 4.32 2.34 5.64 2 7 C1.34 4.69 0.68 2.38 0 0 Z " fill="#C5D388" transform="translate(90,108)"/>
<path d="M0 0 C9.81321177 -0.6434893 18.15240359 2.0612784 26 8 C25.67 9.32 25.34 10.64 25 12 C23.0625 11.1875 23.0625 11.1875 21 10 C20.67 9.01 20.34 8.02 20 7 C13.68765542 3.50548604 7.18360094 1.41443852 0 1 C0 0.67 0 0.34 0 0 Z " fill="#2A1330" transform="translate(123,86)"/>
<path d="M0 0 C2.64 0 5.28 0 8 0 C8 0.99 8 1.98 8 3 C3.18184528 5.77043896 -0.5768541 6.45768541 -6 7 C-6.99 7.495 -6.99 7.495 -8 8 C-8 7.01 -8 6.02 -8 5 C-5.69 5 -3.38 5 -1 5 C-0.67 3.35 -0.34 1.7 0 0 Z " fill="#607C5E" transform="translate(62,101)"/>
<path d="M0 0 C1.85625 0.0309375 1.85625 0.0309375 3.75 0.0625 C3.151875 0.31 2.55375 0.5575 1.9375 0.8125 C-0.71807354 2.3299706 -1.76460751 3.37464692 -3.25 6.0625 C-3.78382712 8.7419015 -4.02233083 11.33046991 -4.25 14.0625 C-4.91 13.7325 -5.57 13.4025 -6.25 13.0625 C-6.8828125 10.33984375 -6.8828125 10.33984375 -7.375 7 C-7.54257813 5.89527344 -7.71015625 4.79054688 -7.8828125 3.65234375 C-8.00398437 2.79769531 -8.12515625 1.94304687 -8.25 1.0625 C-5.42068148 0.25321295 -2.93915923 -0.04898599 0 0 Z " fill="#11252D" transform="translate(140.25,107.9375)"/>
<path d="M0 0 C2.64 0 5.28 0 8 0 C8 0.66 8 1.32 8 2 C10.97 2 13.94 2 17 2 C17 2.99 17 3.98 17 5 C13.37 5 9.74 5 6 5 C6 4.01 6 3.02 6 2 C4.02 2 2.04 2 0 2 C0 1.34 0 0.68 0 0 Z " fill="#795F59" transform="translate(101,99)"/>
<path d="M0 0 C0.33 0 0.66 0 1 0 C1 10.56 1 21.12 1 32 C-0.485 32.495 -0.485 32.495 -2 33 C-1.814375 31.906875 -1.62875 30.81375 -1.4375 29.6875 C-0.7421932 26.06375867 -0.7421932 26.06375867 -2 23 C-1.34 23 -0.68 23 0 23 C-0.05329468 22.11477661 -0.05329468 22.11477661 -0.10766602 21.21166992 C-0.26529374 18.53726172 -0.41399466 15.8624296 -0.5625 13.1875 C-0.61857422 12.25873047 -0.67464844 11.32996094 -0.73242188 10.37304688 C-0.78076172 9.48037109 -0.82910156 8.58769531 -0.87890625 7.66796875 C-0.9260376 6.84578857 -0.97316895 6.0236084 -1.02172852 5.17651367 C-1 3 -1 3 0 0 Z " fill="#041B24" transform="translate(175,53)"/>
<path d="M0 0 C0.99 0 1.98 0 3 0 C2.80664062 0.556875 2.61328125 1.11375 2.4140625 1.6875 C0.68625575 6.75117127 -0.7693067 11.79322065 -2 17 C-2.66 17 -3.32 17 -4 17 C-4.33252584 10.792851 -3.50054525 6.70124316 -1 1 C-0.67 0.67 -0.34 0.34 0 0 Z " fill="#15403F" transform="translate(24,55)"/>
<path d="M0 0 C0.2475 0.61875 0.495 1.2375 0.75 1.875 C2.20628639 4.35068687 3.37812506 4.95125002 6 6 C6 6.99 6 7.98 6 9 C12.27 9 18.54 9 25 9 C25 9.33 25 9.66 25 10 C21.5834948 10.08724706 18.16727687 10.14047325 14.75 10.1875 C13.78191406 10.21263672 12.81382813 10.23777344 11.81640625 10.26367188 C10.88183594 10.27333984 9.94726562 10.28300781 8.984375 10.29296875 C8.12553711 10.3086792 7.26669922 10.32438965 6.38183594 10.34057617 C3.43850487 9.91971241 2.08951099 9.09938977 0 7 C-0.25 3.3125 -0.25 3.3125 0 0 Z " fill="#B3F8F0" transform="translate(103,115)"/>
<path d="M0 0 C0.33 0 0.66 0 1 0 C1.12117187 1.09699219 1.24234375 2.19398438 1.3671875 3.32421875 C1.53609363 4.77868823 1.70538481 6.23311304 1.875 7.6875 C1.95363281 8.40873047 2.03226563 9.12996094 2.11328125 9.87304688 C2.5896051 13.88515932 3.26300142 17.29975512 5 21 C4.34 21.66 3.68 22.32 3 23 C0.17124919 15.65029924 -2.01627354 8.94692587 -1 1 C-0.67 0.67 -0.34 0.34 0 0 Z " fill="#18130F" transform="translate(6,153)"/>
<path d="M0 0 C2.475 0.495 2.475 0.495 5 1 C5 4.63 5 8.26 5 12 C3.02 12.99 3.02 12.99 1 14 C0.67 12.68 0.34 11.36 0 10 C0.99 10 1.98 10 3 10 C3 8.02 3 6.04 3 4 C2.01 3.67 1.02 3.34 0 3 C0 2.01 0 1.02 0 0 Z " fill="#66289E" transform="translate(153,92)"/>
<path d="M0 0 C1.1796875 2.0546875 1.1796875 2.0546875 2 4 C0.37509046 4.02698189 -1.24994633 4.04638757 -2.875 4.0625 C-4.23238281 4.07990234 -4.23238281 4.07990234 -5.6171875 4.09765625 C-8 4 -8 4 -10 3 C-10 2.34 -10 1.68 -10 1 C-6.44714239 -1.32302228 -4.02436469 -1.22480664 0 0 Z " fill="#1E1A10" transform="translate(68,151)"/>
<path d="M0 0 C2.86632944 2.86632944 3.2315668 6.29316426 4.125 10.125 C4.39763672 11.25615234 4.39763672 11.25615234 4.67578125 12.41015625 C5.12354709 14.27191946 5.56260722 16.13577253 6 18 C3.5625 17.1875 3.5625 17.1875 1 16 C-0.14077657 12.57767028 -0.09815117 9.91326783 -0.0625 6.3125 C-0.05347656 5.13300781 -0.04445312 3.95351562 -0.03515625 2.73828125 C-0.02355469 1.83464844 -0.01195312 0.93101563 0 0 Z " fill="#0A2A26" transform="translate(56,112)"/>
<path d="M0 0 C3.21764451 4.82646677 4.36261136 10.19821824 4 16 C1.2027092 13.93243723 0.97307727 12.85559629 0.3125 9.3125 C0.209375 8.219375 0.10625 7.12625 0 6 C-0.66 6 -1.32 6 -2 6 C-2 4.35 -2 2.7 -2 1 C-1.34 0.67 -0.68 0.34 0 0 Z " fill="#3E3311" transform="translate(45,115)"/>
<path d="M0 0 C0.66 0 1.32 0 2 0 C2 0.66 2 1.32 2 2 C2.62044189 1.99476318 3.24088379 1.98952637 3.88012695 1.98413086 C6.69090767 1.96334534 9.50167221 1.95033483 12.3125 1.9375 C13.77719727 1.92493164 13.77719727 1.92493164 15.27148438 1.91210938 C16.20927734 1.90888672 17.14707031 1.90566406 18.11328125 1.90234375 C18.97735596 1.89710693 19.84143066 1.89187012 20.73168945 1.88647461 C23 2 23 2 26 3 C26 3.66 26 4.32 26 5 C24.68 5 23.36 5 22 5 C22 4.34 22 3.68 22 3 C20.02 3 18.04 3 16 3 C16 3.66 16 4.32 16 5 C15.071875 4.7834375 15.071875 4.7834375 14.125 4.5625 C9.77462983 3.77943337 5.39978093 3.40153341 1 3 C0.67 2.01 0.34 1.02 0 0 Z " fill="#41383B" transform="translate(108,98)"/>
<path d="M0 0 C0.28875 0.639375 0.5775 1.27875 0.875 1.9375 C1.82823451 4.15206079 1.82823451 4.15206079 4 5 C2.89184175 8.21365891 2.01470446 8.9914224 -1 10.75 C-4 12 -4 12 -6 12 C-4.97379138 9.7897045 -3.94283206 7.92682503 -2.4375 6 C-0.96806014 3.95556194 -0.43835352 2.45477972 0 0 Z " fill="#3D2538" transform="translate(150,130)"/>
<path d="M0 0 C5.28 0.99 10.56 1.98 16 3 C16 3.66 16 4.32 16 5 C14.5 6.1875 14.5 6.1875 12 7 C9.90055082 6.44932481 7.99165688 5.68389877 6 4.82421875 C4.01761046 4.00725744 2.08868865 3.4708874 0 3 C0 2.01 0 1.02 0 0 Z " fill="#482832" transform="translate(128,83)"/>
<path d="M0 0 C0.33 0 0.66 0 1 0 C2.75135622 6.12974677 4.46978593 12.32553517 2 18.5 C1.67 18.995 1.34 19.49 1 20 C-0.14982602 15.90996141 -0.11094256 11.96822949 -0.0625 7.75 C-0.05798828 7.00492187 -0.05347656 6.25984375 -0.04882812 5.4921875 C-0.03709246 3.6614236 -0.0191585 1.83070127 0 0 Z " fill="#040F11" transform="translate(27,64)"/>
<path d="M0 0 C1 3 1 3 0 6 C-0.66 6 -1.32 6 -2 6 C-1.67 7.0725 -1.34 8.145 -1 9.25 C0 13 0 13 0 17 C-0.99 16.67 -1.98 16.34 -3 16 C-4.00818056 10.25337081 -4.12039324 6.46838257 -2 1 C-1.34 0.67 -0.68 0.34 0 0 Z " fill="#111533" transform="translate(174,85)"/>
<path d="M0 0 C2.97 0 5.94 0 9 0 C9 2.31 9 4.62 9 7 C8.67 6.01 8.34 5.02 8 4 C6.02 4 4.04 4 2 4 C2 3.34 2 2.68 2 2 C1.34 2 0.68 2 0 2 C0 1.34 0 0.68 0 0 Z " fill="#347658" transform="translate(93,111)"/>
<path d="M0 0 C-0.598125 0.268125 -1.19625 0.53625 -1.8125 0.8125 C-4.04383612 1.85257915 -4.04383612 1.85257915 -5.375 3.625 C-7.80395238 5.6802674 -9.93373089 5.20441794 -13 5 C-13 3.68 -13 2.36 -13 1 C-8.62426048 0.40667939 -4.42471556 -0.13827236 0 0 Z " fill="#211F35" transform="translate(143,102)"/>
<path d="M0 0 C0.66 0.33 1.32 0.66 2 1 C3.53668865 1.22467831 5.07968054 1.40796805 6.625 1.5625 C7.44226563 1.64628906 8.25953125 1.73007813 9.1015625 1.81640625 C9.72804688 1.87699219 10.35453125 1.93757813 11 2 C11 2.99 11 3.98 11 5 C4.07 4.505 4.07 4.505 -3 4 C-2.67 3.01 -2.34 2.02 -2 1 C-1.34 0.67 -0.68 0.34 0 0 Z " fill="#354336" transform="translate(96,100)"/>
<path d="M0 0 C1.98 0.66 3.96 1.32 6 2 C6 1.34 6 0.68 6 0 C7.98 0 9.96 0 12 0 C13.125 3.75 13.125 3.75 12 6 C11.34 6 10.68 6 10 6 C10 5.01 10 4.02 10 3 C6.7 3 3.4 3 0 3 C0 2.01 0 1.02 0 0 Z " fill="#494953" transform="translate(118,101)"/>
<path d="M0 0 C1.26328125 0.19464844 2.5265625 0.38929687 3.828125 0.58984375 C4.79234375 0.74582031 5.7565625 0.90179688 6.75 1.0625 C6.75 1.3925 6.75 1.7225 6.75 2.0625 C0.81 2.0625 -5.13 2.0625 -11.25 2.0625 C-11.25 1.4025 -11.25 0.7425 -11.25 0.0625 C-7.35939581 -1.3424404 -4.01907638 -0.63263239 0 0 Z " fill="#243229" transform="translate(121.25,97.9375)"/>
<path d="M0 0 C-1.8125 2 -1.8125 2 -4 4 C-4.99 4 -5.98 4 -7 4 C-7 3.34 -7 2.68 -7 2 C-12.61 2 -18.22 2 -24 2 C-24 1.67 -24 1.34 -24 1 C-21.125109 0.8312433 -18.25011104 0.66492885 -15.375 0.5 C-14.56675781 0.45230469 -13.75851563 0.40460938 -12.92578125 0.35546875 C-8.61012369 0.10986222 -4.32496331 -0.05598658 0 0 Z " fill="#193128" transform="translate(96,96)"/>
<path d="M0 0 C2 1 2 1 2.62109375 2.765625 C3.02399618 5.14150323 3.09791478 7.34179517 3.0625 9.75 C3.05347656 10.54921875 3.04445312 11.3484375 3.03515625 12.171875 C3.01775391 13.07679687 3.01775391 13.07679687 3 14 C2.34 13.34 1.68 12.68 1 12 C1 10.68 1 9.36 1 8 C0.34 8 -0.32 8 -1 8 C-1.33 8.66 -1.66 9.32 -2 10 C-2 8.02 -2 6.04 -2 4 C-1.34 4 -0.68 4 0 4 C0 2.68 0 1.36 0 0 Z " fill="#123449" transform="translate(181,52)"/>
<path d="M0 0 C5.28 0.99 10.56 1.98 16 3 C12.11937774 4.94031113 11.40356026 5.2600179 7.4375 4.75 C6.29087891 4.61851562 6.29087891 4.61851562 5.12109375 4.484375 C3 4 3 4 0 2 C0 1.34 0 0.68 0 0 Z " fill="#372F18" transform="translate(24,185)"/>
<path d="M0 0 C0 0.66 0 1.32 0 2 C-7.59 2 -15.18 2 -23 2 C-23 1.67 -23 1.34 -23 1 C-21.86820312 0.93941406 -20.73640625 0.87882813 -19.5703125 0.81640625 C-18.08852855 0.73200083 -16.6067584 0.64735283 -15.125 0.5625 C-14.37863281 0.52318359 -13.63226563 0.48386719 -12.86328125 0.44335938 C-1.04906952 -0.24846383 -1.04906952 -0.24846383 0 0 Z " fill="#190600" transform="translate(103,186)"/>
<path d="M0 0 C1.67542976 0.28604898 3.34385343 0.61781233 5 1 C5 1.99 5 2.98 5 4 C0.71 3.67 -3.58 3.34 -8 3 C-8 2.34 -8 1.68 -8 1 C-6.865625 1.020625 -5.73125 1.04125 -4.5625 1.0625 C-1.18424326 1.41577477 -1.18424326 1.41577477 0 0 Z " fill="#112223" transform="translate(125,95)"/>
<path d="M0 0 C1.41655793 -0.0272415 2.83327045 -0.04650467 4.25 -0.0625 C5.43335938 -0.07990234 5.43335938 -0.07990234 6.640625 -0.09765625 C8.90691002 -0.00385306 10.8288895 0.36758937 13 1 C12.67 1.66 12.34 2.32 12 3 C10.6078125 2.7215625 10.6078125 2.7215625 9.1875 2.4375 C5.98656229 1.75876119 5.98656229 1.75876119 3 3 C2.01 4.485 2.01 4.485 1 6 C0.34 5.34 -0.32 4.68 -1 4 C-0.625 1.875 -0.625 1.875 0 0 Z " fill="#422C5F" transform="translate(146,88)"/>
<path d="M0 0 C0.99 0 1.98 0 3 0 C2.45276317 3.37462715 1.9451 5.08235 0 8 C-2.625 9.1875 -2.625 9.1875 -5 10 C-4.4409112 6.75728494 -3.5867822 5.06942576 -1 3 C-0.34 3 0.32 3 1 3 C0.67 2.01 0.34 1.02 0 0 Z " fill="#1D1624" transform="translate(197,176)"/>
<path d="M0 0 C0.598125 0.350625 1.19625 0.70125 1.8125 1.0625 C1.19375 1.475 0.575 1.8875 -0.0625 2.3125 C-2.25518281 4.11823879 -3.11538417 5.4715534 -4.1875 8.0625 C-5.55491555 5.81028616 -6.22816478 4.53692242 -6 1.875 C-5.731875 1.276875 -5.46375 0.67875 -5.1875 0.0625 C-2.1875 -0.9375 -2.1875 -0.9375 0 0 Z " fill="#522E80" transform="translate(154.1875,89.9375)"/>
<path d="M0 0 C0.66 0 1.32 0 2 0 C2.33 0.66 2.66 1.32 3 2 C3.33 1.34 3.66 0.68 4 0 C4.66 0 5.32 0 6 0 C6.33 2.64 6.66 5.28 7 8 C6.67 7.34 6.34 6.68 6 6 C4.35 6.33 2.7 6.66 1 7 C0.67 4.69 0.34 2.38 0 0 Z " fill="#1B636A" transform="translate(175,50)"/>
<path d="M0 0 C1.65 0 3.3 0 5 0 C5.80967438 2.91482778 6.21845993 4.46113217 5.0625 7.3125 C4.5365625 8.1478125 4.5365625 8.1478125 4 9 C3.34 9 2.68 9 2 9 C3.875 4.25 3.875 4.25 5 2 C2.37812506 3.04874998 1.20628639 3.64931313 -0.25 6.125 C-0.4975 6.74375 -0.745 7.3625 -1 8 C-0.67 5.36 -0.34 2.72 0 0 Z " fill="#073030" transform="translate(22,53)"/>
<path d="M0 0 C1.32 0 2.64 0 4 0 C4 3.63 4 7.26 4 11 C3.34 10.67 2.68 10.34 2 10 C1.3671875 7.71484375 1.3671875 7.71484375 0.875 4.9375 C0.70742188 4.01839844 0.53984375 3.09929687 0.3671875 2.15234375 C0.24601562 1.44207031 0.12484375 0.73179688 0 0 Z " fill="#18775E" transform="translate(60,112)"/>
<path d="M0 0 C-2.43841124 2.43841124 -4.18566115 2.76152751 -7.5 3.625 C-8.96953125 4.01558594 -8.96953125 4.01558594 -10.46875 4.4140625 C-13 5 -13 5 -15 5 C-15 4.34 -15 3.68 -15 3 C-13.44033782 2.491217 -11.87710759 1.99336531 -10.3125 1.5 C-9.44238281 1.2215625 -8.57226562 0.943125 -7.67578125 0.65625 C-5.00608323 0.00149195 -2.73603316 -0.11831495 0 0 Z " fill="#352024" transform="translate(141,143)"/>
<path d="M0 0 C6.93 0.495 6.93 0.495 14 1 C12.68 1.33 11.36 1.66 10 2 C9.67 2.66 9.34 3.32 9 4 C6.03 3.67 3.06 3.34 0 3 C0 2.01 0 1.02 0 0 Z " fill="#035246" transform="translate(70,129)"/>
<path d="M0 0 C-2.49245221 2.75950066 -4.20300991 4.62030099 -8 5 C-8.66 4.67 -9.32 4.34 -10 4 C-10 3.01 -10 2.02 -10 1 C-6.61981469 -0.04005702 -3.5219721 -0.08004482 0 0 Z " fill="#024539" transform="translate(90,130)"/>
<path d="M0 0 C0 2.64 0 5.28 0 8 C-1.32 8 -2.64 8 -4 8 C-4.1875 5.125 -4.1875 5.125 -4 2 C-1 0 -1 0 0 0 Z " fill="#5B258B" transform="translate(158,104)"/>
<path d="M0 0 C-0.33 0.99 -0.66 1.98 -1 3 C-5.455 3.495 -5.455 3.495 -10 4 C-9.34 3.67 -8.68 3.34 -8 3 C-8 2.34 -8 1.68 -8 1 C-3.375 -1.125 -3.375 -1.125 0 0 Z " fill="#2B063C" transform="translate(152,104)"/>
<path d="M0 0 C1.485 0.99 1.485 0.99 3 2 C3.6875 5.625 3.6875 5.625 4 9 C3.01 9.495 3.01 9.495 2 10 C2 9.34 2 8.68 2 8 C1.34 8 0.68 8 0 8 C0 5.36 0 2.72 0 0 Z " fill="#2E1E15" transform="translate(22,88)"/>
<path d="M0 0 C-0.33 0.99 -0.66 1.98 -1 3 C-5.455 3.495 -5.455 3.495 -10 4 C-10 3.01 -10 2.02 -10 1 C-3.375 0 -3.375 0 0 0 Z " fill="#362F4F" transform="translate(144,99)"/>
<path d="M0 0 C0.99 1.32 1.98 2.64 3 4 C3 2.68 3 1.36 3 0 C3.99 0 4.98 0 6 0 C5.67 1.98 5.34 3.96 5 6 C4.01 6.33 3.02 6.66 2 7 C1.67 6.01 1.34 5.02 1 4 C0.01 3.67 -0.98 3.34 -2 3 C-1.34 2.01 -0.68 1.02 0 0 Z " fill="#081612" transform="translate(27,96)"/>
<path d="M0 0 C0.33 0 0.66 0 1 0 C1.66 4.62 2.32 9.24 3 14 C2.34 14 1.68 14 1 14 C0.67 14.66 0.34 15.32 0 16 C0 10.72 0 5.44 0 0 Z " fill="#151D3A" transform="translate(180,76)"/>
<path d="M0 0 C3.3 0 6.6 0 10 0 C10 0.99 10 1.98 10 3 C6.7 2.67 3.4 2.34 0 2 C0 1.34 0 0.68 0 0 Z " fill="#1C0F28" transform="translate(190,76)"/>
<path d="M0 0 C0.99 0.33 1.98 0.66 3 1 C3 1.99 3 2.98 3 4 C2.34 4 1.68 4 1 4 C0.67 4.99 0.34 5.98 0 7 C-0.33 6.01 -0.66 5.02 -1 4 C-1.66 4 -2.32 4 -3 4 C-3.33 4.99 -3.66 5.98 -4 7 C-3.6875 4.625 -3.6875 4.625 -3 2 C-2.01 1.34 -1.02 0.68 0 0 Z " fill="#082329" transform="translate(178,46)"/>
<path d="M0 0 C2.97 0 5.94 0 9 0 C9 0.66 9 1.32 9 2 C5.7 2.33 2.4 2.66 -1 3 C-0.67 2.01 -0.34 1.02 0 0 Z " fill="#110314" transform="translate(177,184)"/>
<path d="M0 0 C3.3 0 6.6 0 10 0 C10 0.33 10 0.66 10 1 C7.69 1 5.38 1 3 1 C3 1.66 3 2.32 3 3 C4.98 3 6.96 3 9 3 C9 3.33 9 3.66 9 4 C6.03 4 3.06 4 0 4 C0 2.68 0 1.36 0 0 Z " fill="#6F4935" transform="translate(98,98)"/>
<path d="M0 0 C3.63 0.33 7.26 0.66 11 1 C10.01 1.33 9.02 1.66 8 2 C8 2.66 8 3.32 8 4 C6.02 4 4.04 4 2 4 C1.34 2.68 0.68 1.36 0 0 Z " fill="#2E5D53" transform="translate(69,100)"/>
<path d="M0 0 C1.32 0 2.64 0 4 0 C4 1.98 4 3.96 4 6 C2.68 6 1.36 6 0 6 C0 4.02 0 2.04 0 0 Z " fill="#802BB3" transform="translate(152,96)"/>
<path d="M0 0 C0 0.99 0 1.98 0 3 C-3.47325181 4.1577506 -6.36067448 4.06866652 -10 4 C-6.64877401 1.34213111 -4.39380802 0 0 0 Z " fill="#281936" transform="translate(192,184)"/>
<path d="M0 0 C2.97 0.495 2.97 0.495 6 1 C6 1.99 6 2.98 6 4 C6.99 4.33 7.98 4.66 9 5 C8.01 5.33 7.02 5.66 6 6 C2.8125 4.1875 2.8125 4.1875 0 2 C0 1.34 0 0.68 0 0 Z " fill="#29200E" transform="translate(18,183)"/>
<path d="M0 0 C0.99 0.33 1.98 0.66 3 1 C3.3721042 2.32303717 3.70630173 3.65737935 4 5 C4.66 5.33 5.32 5.66 6 6 C2.86650268 7.04449911 2.01031744 6.93423645 -1 6 C-0.67 4.02 -0.34 2.04 0 0 Z " fill="#0A4840" transform="translate(96,121)"/>
<path d="M0 0 C0.99 0 1.98 0 3 0 C2.6875 1.875 2.6875 1.875 2 4 C1.01 4.66 0.02 5.32 -1 6 C-1.73343428 9.06556598 -1.73343428 9.06556598 -2 12 C-2.33 12 -2.66 12 -3 12 C-3.28999491 7.07008655 -3.19703098 3.90748231 0 0 Z " fill="#1C1400" transform="translate(45,94)"/>
<path d="M0 0 C0.66 1.32 1.32 2.64 2 4 C1.34 4.66 0.68 5.32 0 6 C-1.66666667 6 -3.33333333 6 -5 6 C-5 5.01 -5 4.02 -5 3 C-2.5 1.3125 -2.5 1.3125 0 0 Z " fill="#323031" transform="translate(28,145)"/>
<path d="M0 0 C2.97 0 5.94 0 9 0 C8.67 0.99 8.34 1.98 8 3 C5.6568787 2.74438677 3.32156597 2.40729228 1 2 C0.67 1.34 0.34 0.68 0 0 Z " fill="#B8D27D" transform="translate(55,107)"/>
<path d="M0 0 C0.66 0 1.32 0 2 0 C2 0.66 2 1.32 2 2 C3.65 2.33 5.3 2.66 7 3 C6.67 3.66 6.34 4.32 6 5 C5.236875 4.835 4.47375 4.67 3.6875 4.5 C0.96403764 3.90854604 0.96403764 3.90854604 -2 4 C-1.34 2.68 -0.68 1.36 0 0 Z " fill="#161620" transform="translate(145,78)"/>
<path d="M0 0 C0 0.66 0 1.32 0 2 C0.66 2.33 1.32 2.66 2 3 C-0.64 3 -3.28 3 -6 3 C-6.33 2.01 -6.66 1.02 -7 0 C-3.86650268 -1.04449911 -3.01031744 -0.93423645 0 0 Z " fill="#2C1A23" transform="translate(134,80)"/>
<path d="M0 0 C0.66 0 1.32 0 2 0 C2.19622241 4.21878192 1.80230168 7.17010894 0 11 C-0.33 11 -0.66 11 -1 11 C-1.14285714 3.57142857 -1.14285714 3.57142857 0 0 Z " fill="#2F214E" transform="translate(158,120)"/>
<path d="M0 0 C1.32 0 2.64 0 4 0 C4.66 1.32 5.32 2.64 6 4 C4.02 4 2.04 4 0 4 C0 2.68 0 1.36 0 0 Z " fill="#1A1906" transform="translate(49,106)"/>
<path d="M0 0 C2.14418558 3.21627837 2.67582137 5.19090105 3 9 C2.34 9.66 1.68 10.32 1 11 C0 10 0 10 -0.09765625 7.71484375 C-0.08605469 6.79832031 -0.07445313 5.88179688 -0.0625 4.9375 C-0.05347656 4.01839844 -0.04445313 3.09929687 -0.03515625 2.15234375 C-0.02355469 1.44207031 -0.01195313 0.73179688 0 0 Z " fill="#09130F" transform="translate(18,69)"/>
<path d="M0 0 C0.99 0.33 1.98 0.66 3 1 C2.34 1 1.68 1 1 1 C0.9175 1.94875 0.835 2.8975 0.75 3.875 C0 7 0 7 -2.0625 8.375 C-2.701875 8.58125 -3.34125 8.7875 -4 9 C-3.34 6.69 -2.68 4.38 -2 2 C-1.34 2 -0.68 2 0 2 C0 1.34 0 0.68 0 0 Z " fill="#062327" transform="translate(26,60)"/>
<path d="M0 0 C0.99 0.33 1.98 0.66 3 1 C3.33 1.99 3.66 2.98 4 4 C5.49985609 5.66710346 5.49985609 5.66710346 7 7 C5.35 7 3.7 7 2 7 C1.34 4.69 0.68 2.38 0 0 Z " fill="#193D38" transform="translate(62,128)"/>
<path d="M0 0 C2.31 0.66 4.62 1.32 7 2 C3.25 5 3.25 5 1 5 C0.67 3.35 0.34 1.7 0 0 Z " fill="#426C42" transform="translate(56,109)"/>
<path d="M0 0 C0.99 0.33 1.98 0.66 3 1 C3 2.32 3 3.64 3 5 C4.32 5 5.64 5 7 5 C7 5.66 7 6.32 7 7 C5.35 6.67 3.7 6.34 2 6 C2 5.01 2 4.02 2 3 C1.34 3 0.68 3 0 3 C0 2.01 0 1.02 0 0 Z " fill="#06735E" transform="translate(64,121)"/>
<path d="M0 0 C-0.66 0 -1.32 0 -2 0 C-1.67 0.99 -1.34 1.98 -1 3 C-2.65 3 -4.3 3 -6 3 C-6.33 2.01 -6.66 1.02 -7 0 C-3.86650268 -1.04449911 -3.01031744 -0.93423645 0 0 Z " fill="#55725D" transform="translate(84,102)"/>
<path d="M0 0 C2.475 0.495 2.475 0.495 5 1 C5 2.65 5 4.3 5 6 C4.67 5.34 4.34 4.68 4 4 C1.97536745 3.34786708 1.97536745 3.34786708 0 3 C0 2.01 0 1.02 0 0 Z " fill="#5B439C" transform="translate(153,92)"/>
<path d="M0 0 C1.134375 0.020625 2.26875 0.04125 3.4375 0.0625 C3.4375 0.7225 3.4375 1.3825 3.4375 2.0625 C1.4575 3.0525 1.4575 3.0525 -0.5625 4.0625 C-1.8825 3.0725 -3.2025 2.0825 -4.5625 1.0625 C-3.5625 0.0625 -3.5625 0.0625 0 0 Z " fill="#42213E" transform="translate(140.5625,85.9375)"/>
<path d="M0 0 C-1.98 1.32 -3.96 2.64 -6 4 C-6.33 3.34 -6.66 2.68 -7 2 C-5.26578631 -1.46842738 -3.40984787 -1.13661596 0 0 Z " fill="#01352C" transform="translate(132,128)"/>
<path d="M0 0 C1.32 0.33 2.64 0.66 4 1 C3.67 4.3 3.34 7.6 3 11 C2.67 11 2.34 11 2 11 C1.34 7.37 0.68 3.74 0 0 Z " fill="#113636" transform="translate(132,109)"/>
<path d="M0 0 C0.66 0.33 1.32 0.66 2 1 C2 5.62 2 10.24 2 15 C1.67 15 1.34 15 1 15 C0.83179449 13.06263299 0.66548905 11.12510094 0.5 9.1875 C0.4071875 8.10855469 0.314375 7.02960938 0.21875 5.91796875 C0 3 0 3 0 0 Z " fill="#451251" transform="translate(151,101)"/>
<path d="M0 0 C0 0.66 0 1.32 0 2 C-2.64 2.33 -5.28 2.66 -8 3 C-8 2.34 -8 1.68 -8 1 C-5.29120665 -0.35439668 -2.99066732 -0.06501451 0 0 Z " fill="#A6986F" transform="translate(90,101)"/>
<path d="M0 0 C0 0.66 0 1.32 0 2 C-4.33273814 2.92844389 -7.66726186 2.92844389 -12 2 C-12 1.67 -12 1.34 -12 1 C-7.915021 0.45533613 -4.1274515 0 0 0 Z " fill="#192520" transform="translate(116,95)"/>
<path d="M0 0 C0.66 0 1.32 0 2 0 C2.33 1.98 2.66 3.96 3 6 C2.34 6 1.68 6 1 6 C0.67 7.32 0.34 8.64 0 10 C0 6.7 0 3.4 0 0 Z " fill="#021F35" transform="translate(180,60)"/>
<path d="M0 0 C0.66 0 1.32 0 2 0 C4.125 4.625 4.125 4.625 3 8 C0 3.375 0 3.375 0 0 Z " fill="#483C23" transform="translate(48,126)"/>
<path d="M0 0 C2.35953094 2.35953094 2.49141413 3.77895617 3 7 C2.01 7 1.02 7 0 7 C-0.38133299 5.0085944 -0.71325582 3.00720923 -1 1 C-0.67 0.67 -0.34 0.34 0 0 Z " fill="#206450" transform="translate(59,113)"/>
<path d="M0 0 C0.66 1.32 1.32 2.64 2 4 C1.01 4.33 0.02 4.66 -1 5 C-1 4.34 -1 3.68 -1 3 C-2.32 3 -3.64 3 -5 3 C-5 2.34 -5 1.68 -5 1 C-3.35 0.67 -1.7 0.34 0 0 Z " fill="#3A1966" transform="translate(149,96)"/>
</svg>
